<svg id="Capa_1" data-name="Capa 1" xmlns="http://www.w3.org/2000/svg" viewBox="0 0 758.23 142.57"><defs><style>.cls-1{fill:#45a621;}.cls-2{fill:#fff;}</style></defs><title>Mesa de trabajo 1</title><rect class="cls-1" width="758.23" height="142.57"/><g id="Capa_2" data-name="Capa 2"><g id="Capa_1-2" data-name="Capa 1-2"><path class="cls-2" d="M703,79.91V76.68h13.2a2.67,2.67,0,0,0,2-.79A2.49,2.49,0,0,0,719,74a2.62,2.62,0,0,0-.83-1.95,2.83,2.83,0,0,0-2-.79h-8a5,5,0,0,1-4.66-2.64,5.24,5.24,0,0,1-.73-2.72,5.35,5.35,0,0,1,5.35-5.35h13.46v3.15H708.19a2.28,2.28,0,0,0-1.65.66,2.14,2.14,0,0,0-.68,1.58,2.21,2.21,0,0,0,.68,1.61,2.38,2.38,0,0,0,1.65.63h8.15a5.6,5.6,0,0,1,5.21,2.94,5.78,5.78,0,0,1,.77,2.91,5.5,5.5,0,0,1-1.78,4.23,6.19,6.19,0,0,1-4.34,1.64Zm-7.63-11.17V79.91h-3.05v-11a5.82,5.82,0,0,0-1.54-4.09,5.55,5.55,0,0,0-7.84-.08l-.08.08a5.68,5.68,0,0,0-1.55,4.1v11h-3.19V60.54h3.19v2A11.48,11.48,0,0,1,684,60.88a7.67,7.67,0,0,1,3.1-.63,7.86,7.86,0,0,1,5.88,2.5,8.33,8.33,0,0,1,2.4,6ZM659.78,80.19a10.41,10.41,0,0,1-7.35-2.88,9.57,9.57,0,0,1-.62-13.52q.3-.32.62-.62a10.34,10.34,0,0,1,7.35-2.91,10.52,10.52,0,0,1,7.43,2.91,9.55,9.55,0,0,1,.65,13.49q-.31.34-.65.65a10.59,10.59,0,0,1-7.42,2.88Zm0-17.06a7.41,7.41,0,0,0-5.26,2.07,6.79,6.79,0,0,0-.41,9.6q.21.23.44.44a7.86,7.86,0,0,0,10.5,0,6.76,6.76,0,0,0,0-10,7.54,7.54,0,0,0-5.31-2.07ZM638.3,57a1.55,1.55,0,0,1,.46-1.09,1.5,1.5,0,0,1,1.07-.43,1.56,1.56,0,0,1,1.09.43,1.5,1.5,0,0,1,.45,1.09,1.45,1.45,0,0,1-.45,1.09,1.48,1.48,0,0,1-1.09.45,1.42,1.42,0,0,1-1.07-.45A1.49,1.49,0,0,1,638.3,57Zm3.08,22.87h-3.19V60.25h3.19ZM620.95,55.39h3v5.14h6.72v2.91H624V73a5.43,5.43,0,0,0,.26,1.27,4.24,4.24,0,0,0,.52,1.16c.8,1.14,2.23,1.69,4.28,1.69h2.28v2.83l-2,0c-.87,0-1.6,0-2.17,0a10.9,10.9,0,0,1-2-.32,5.58,5.58,0,0,1-3.06-2.16A6,6,0,0,1,621,73.88Zm-24.86,16.3V60.57h3.1v11a5.78,5.78,0,0,0,1.54,4.07,5.1,5.1,0,0,0,3.93,1.68,5.24,5.24,0,0,0,4-1.65,5.74,5.74,0,0,0,1.55-4.07v-11h3.15V79.91H610.2v-2a11.88,11.88,0,0,1-2.69,1.67,7.64,7.64,0,0,1-3.09.61,7.94,7.94,0,0,1-5.91-2.48,8.32,8.32,0,0,1-2.4-6Zm-7.92,8.23H585V55.43h3.18Zm-21.47.29a10.41,10.41,0,0,1-7.36-2.88,9.6,9.6,0,0,1-.57-13.57q.27-.3.57-.57a10.34,10.34,0,0,1,7.36-2.91,10.5,10.5,0,0,1,7.41,2.91,9.5,9.5,0,0,1,0,14.13,10.57,10.57,0,0,1-7.41,2.87Zm0-17.06a7.4,7.4,0,0,0-5.26,2.07,6.8,6.8,0,0,0-.4,9.61q.2.22.43.42a7.86,7.86,0,0,0,10.5,0,6.59,6.59,0,0,0,2.24-5,6.52,6.52,0,0,0-2.2-5,7.55,7.55,0,0,0-5.3-2.09ZM530,79.92V76.69h13.2a2.7,2.7,0,0,0,2-.79,2.51,2.51,0,0,0,.85-1.92,2.58,2.58,0,0,0-.84-1.95,2.76,2.76,0,0,0-2-.79h-8a5.07,5.07,0,0,1-4.68-2.64,5.32,5.32,0,0,1-.73-2.72,5.24,5.24,0,0,1,1.55-3.78,5.19,5.19,0,0,1,3.8-1.57h13.46v3.15H535.26a2.23,2.23,0,0,0-1.64.66,2.07,2.07,0,0,0-.7,1.58,2.14,2.14,0,0,0,.7,1.61,2.33,2.33,0,0,0,1.64.63h8.15a5.59,5.59,0,0,1,5.2,2.94,5.78,5.78,0,0,1,.77,2.91,5.49,5.49,0,0,1-1.78,4.23,6.19,6.19,0,0,1-4.34,1.64Zm-41.48,0V76.69h13.21a2.7,2.7,0,0,0,2-.79,2.5,2.5,0,0,0,.84-1.92,2.64,2.64,0,0,0-.81-1.95,2.86,2.86,0,0,0-2-.79h-8a5.11,5.11,0,0,1-4.69-2.64,5.37,5.37,0,0,1,4.62-8.06h13.46V63.7H493.79a2.28,2.28,0,0,0-1.65.66,2.13,2.13,0,0,0-.68,1.58,2.2,2.2,0,0,0,.68,1.61,2.39,2.39,0,0,0,1.65.63H502a5.57,5.57,0,0,1,5.2,2.94,5.69,5.69,0,0,1,.78,2.91,5.53,5.53,0,0,1-1.79,4.23,6.21,6.21,0,0,1-4.36,1.64Zm-9-13.93a7.84,7.84,0,0,0-5.85-2.85,6.75,6.75,0,0,0-4.95,2.11,6.87,6.87,0,0,0-2.09,5,6.66,6.66,0,0,0,2.07,4.95,6.84,6.84,0,0,0,4.95,2.07,7,7,0,0,0,4-1.2,6.28,6.28,0,0,0,2.53-3.18l2.11,2c-1.89,3.53-4.6,5.3-8.18,5.3a10.53,10.53,0,0,1-7.4-2.74,9.35,9.35,0,0,1-3.08-7.2,9.57,9.57,0,0,1,2.91-7.11,10,10,0,0,1,7.24-2.88A9.38,9.38,0,0,1,482,64.32Zm-27.14-9a1.57,1.57,0,0,1,.45-1.09,1.52,1.52,0,0,1,1.07-.43A1.56,1.56,0,0,1,455,56a1.55,1.55,0,0,1-1.08,2.63h0a1.44,1.44,0,0,1-1.07-.45A1.5,1.5,0,0,1,452.41,57Zm3.06,22.87h-3.18V60.25h3.18ZM435,55.39h3.07v5.14h6.71v2.91h-6.71V73a5,5,0,0,0,.25,1.27,4.44,4.44,0,0,0,.52,1.16c.81,1.14,2.22,1.69,4.27,1.69h2.29v2.83l-2,0c-.89,0-1.61,0-2.17,0a11,11,0,0,1-2-.32,5.53,5.53,0,0,1-3.07-2.16A5.94,5.94,0,0,1,435,73.88ZM408.33,79.91V76.68h13.23a2.77,2.77,0,0,0,2-.79,2.54,2.54,0,0,0,.82-1.92,2.64,2.64,0,0,0-.81-1.95,2.88,2.88,0,0,0-2-.79h-8a5.08,5.08,0,0,1-4.69-2.64,5.29,5.29,0,0,1-.74-2.72,5.21,5.21,0,0,1,1.57-3.78,5.14,5.14,0,0,1,3.78-1.57h13.46v3.15H413.58a2.28,2.28,0,0,0-1.65.66,2.12,2.12,0,0,0-.66,1.58,2.19,2.19,0,0,0,.66,1.61,2.38,2.38,0,0,0,1.65.63h8.15a5.59,5.59,0,0,1,5.21,2.94A5.87,5.87,0,0,1,427.7,74a5.49,5.49,0,0,1-1.79,4.23,6.17,6.17,0,0,1-4.33,1.64ZM397.52,57A1.48,1.48,0,0,1,399,55.53h0a1.57,1.57,0,0,1,1.1.43A1.55,1.55,0,0,1,399,58.59h0a1.53,1.53,0,0,1-1.5-1.55Zm3.05,22.87h-3.16V60.25h3.17ZM386.45,63.64a3.49,3.49,0,0,0-1.33-.33,14.67,14.67,0,0,0-1.6,0l-1.43,0a6.88,6.88,0,0,0-5,11.73l.08.08a7,7,0,0,0,5,1.95h4.27ZM381.8,79.91a10.06,10.06,0,0,1-5.2-1.37A9.31,9.31,0,0,1,373,74.68a9.42,9.42,0,0,1-1.09-4.48,9.28,9.28,0,0,1,2.95-7,9.84,9.84,0,0,1,7.1-2.82l1.45-.07c.72,0,1.28,0,1.68,0a4.55,4.55,0,0,1,1.42.22h3V80.33A6.33,6.33,0,0,1,388.37,84a4.32,4.32,0,0,1-3.09,2,45.31,45.31,0,0,1-6.09.29V83.55c.26,0,.65,0,1.14,0h1.16c2,0,3.47-.56,4.26-1.67a3.36,3.36,0,0,0,.74-2Zm-27.45.29A10.42,10.42,0,0,1,347,77.32a9.6,9.6,0,0,1-.57-13.57q.27-.3.57-.57a10.35,10.35,0,0,1,7.36-2.91,10.51,10.51,0,0,1,7.42,2.91,9.57,9.57,0,0,1,.61,13.53q-.29.32-.61.61a10.58,10.58,0,0,1-7.43,2.87Zm0-17.06a7.37,7.37,0,0,0-5.26,2.07,6.66,6.66,0,0,0-2.19,5,6.56,6.56,0,0,0,2.21,5,7.86,7.86,0,0,0,10.5,0,6.6,6.6,0,0,0,2.25-5,6.47,6.47,0,0,0-2.22-5,7.57,7.57,0,0,0-5.3-2.08ZM336,79.92h-3.2V55.43H336Zm-35.9-24.53h3.06v5.14h6.69v2.91h-6.69V73a5,5,0,0,0,.26,1.27,4.25,4.25,0,0,0,.51,1.16c.81,1.14,2.23,1.69,4.29,1.69h2.28V79.9l-2,0c-.87,0-1.61,0-2.16,0a10.82,10.82,0,0,1-2-.32,5.56,5.56,0,0,1-3.08-2.16,5.94,5.94,0,0,1-1.16-3.58ZM288,63.13a5.19,5.19,0,0,0-3.94,1.66,5.74,5.74,0,0,0-1.54,4.1v11h-3.2V60.54h3.2v2a11.21,11.21,0,0,1,2.68-1.68,7.61,7.61,0,0,1,3.08-.63,7.94,7.94,0,0,1,6.44,3.1L292,64.83A5.19,5.19,0,0,0,288,63.13ZM261.9,80.19a10.49,10.49,0,0,1-7.37-2.88,9.63,9.63,0,0,1-.53-13.6q.26-.28.53-.53a10.82,10.82,0,0,1,14.79,0A9.55,9.55,0,0,1,270,76.66q-.31.34-.65.65a10.59,10.59,0,0,1-7.42,2.88Zm0-17.06a7.43,7.43,0,0,0-5.26,2.07,6.69,6.69,0,0,0-2.19,5.05,6.61,6.61,0,0,0,2.23,5,7.51,7.51,0,0,0,5.22,2,7.68,7.68,0,0,0,5.28-2,6.52,6.52,0,0,0,2.22-5,6.4,6.4,0,0,0-2.2-5,7.54,7.54,0,0,0-5.3-2.08Zm-18.28,7.15a9.2,9.2,0,0,0-3-6.95,10,10,0,0,0-7.13-2.81H226V86.34h3V79.91h4.7a10.1,10.1,0,0,0,5.19-1.37A9.83,9.83,0,0,0,243.62,70.29ZM229,63.64h4.39a7.08,7.08,0,0,1,5,1.86,6.25,6.25,0,0,1,2,4.79,6.4,6.4,0,0,1-2.05,4.87,7.08,7.08,0,0,1-5,1.92H229Z"/><path class="cls-2" d="M134.9,91.61V84.73h28.31a5.92,5.92,0,0,0,4.23-1.7,5.74,5.74,0,0,0,.19-8.12l-.15-.16a5.91,5.91,0,0,0-4.27-1.68H146a10.91,10.91,0,0,1-10-5.64,11.48,11.48,0,0,1,9.88-17.31h28.84v6.76H146.1a4.93,4.93,0,0,0-3.51,1.39,4.71,4.71,0,0,0-.17,6.66l.17.17a4.9,4.9,0,0,0,3.51,1.39h17.51q7.57,0,11.13,6.3A12.41,12.41,0,0,1,176.39,79a11.81,11.81,0,0,1-3.81,9.08,13.32,13.32,0,0,1-9.31,3.51Zm-47.72,0V84.73h28.3a5.93,5.93,0,0,0,4.24-1.7,5.42,5.42,0,0,0,1.79-4.13,5.53,5.53,0,0,0-1.75-4.14,5.92,5.92,0,0,0-4.28-1.68H98.32a10.9,10.9,0,0,1-10-5.64,11.35,11.35,0,0,1-1.59-5.84A11.48,11.48,0,0,1,98.18,50.12H127v6.76H98.37a4.91,4.91,0,0,0-3.49,1.39,4.7,4.7,0,0,0-.19,6.64l.19.19a4.88,4.88,0,0,0,3.49,1.39h17.51q7.57,0,11.13,6.3A12.31,12.31,0,0,1,128.66,79a11.81,11.81,0,0,1-3.81,9.08,13.28,13.28,0,0,1-9.31,3.51Zm-28.77.6a22.37,22.37,0,0,1-15.79-6.16,20.64,20.64,0,0,1,0-30.3,22.2,22.2,0,0,1,15.78-6.23,22.61,22.61,0,0,1,15.9,6.23,20.49,20.49,0,0,1,0,30.3A22.59,22.59,0,0,1,58.41,92.22Zm0-36.53a15.81,15.81,0,0,0-11.26,4.45,14.5,14.5,0,0,0,.06,21.48,16,16,0,0,0,11.2,4.32,16.19,16.19,0,0,0,11.3-4.33,14.47,14.47,0,0,0,.08-21.47,16.18,16.18,0,0,0-11.37-4.45Z"/><rect class="cls-2" x="194.89" y="7.11" width="4.84" height="127.52"/></g></g></svg>