<svg xmlns="http://www.w3.org/2000/svg" viewBox="0 0 1127.59 1155.81"><title>AGENCIAMIENTO</title><g id="Capa_2" data-name="Capa 2"><g id="Pregunta_3" data-name="Pregunta 3"><path d="M289.92,1136.32a262.46,262.46,0,0,1-42.17-7.29l-5.11-1.42-2.54-.71-2.52-.79-5-1.58-5-1.74c-3.32-1.1-6.54-2.48-9.79-3.71-1.61-.65-3.2-1.37-4.8-2s-3.19-1.35-4.75-2.11a221.88,221.88,0,0,1-35.55-20.46c-5.56-3.84-10.81-8.08-15.93-12.37l-3.75-3.32c-.62-.56-1.25-1.09-1.86-1.66l-1.8-1.73-3.6-3.43-3.46-3.56A197.42,197.42,0,0,1,118,1037.71c-.35-.55-.69-1.11-1-1.66l53.79,2.48c-46.37-28.6-98.29-81.84-133-127C34.65,968.43,22,1041.71,0,1091.54l49.65-37.6a261.11,261.11,0,0,0,58.58,55.48l5.13,3.49,5.24,3.3,2.62,1.64c.88.54,1.78,1,2.67,1.56l5.34,3.08c7.22,3.92,14.48,7.66,22,10.87a262.1,262.1,0,0,0,45.74,15.27c1.93.5,3.88.88,5.83,1.29s3.88.83,5.83,1.19c3.92.65,7.79,1.43,11.71,1.92l5.86.81,5.87.62,2.93.31,2.94.22,5.86.42a284.83,284.83,0,0,0,46.45-1.3,289.07,289.07,0,0,0,44.85-8.75,295.55,295.55,0,0,0,42.22-15.51,291.1,291.1,0,0,1-43.77,6.75A275.71,275.71,0,0,1,289.92,1136.32Z"/><path d="M870.89,149.68H742.71a16.9,16.9,0,1,0,0,33.79H870.89a13.79,13.79,0,0,1,13.77,13.77v679H807.79a47.61,47.61,0,0,0-47.56,47.56v76.87H243.83a13.79,13.79,0,0,1-13.77-13.77V197.25a13.79,13.79,0,0,1,13.77-13.77H372a16.9,16.9,0,0,0,0-33.79H243.83a47.62,47.62,0,0,0-47.57,47.56V986.88a47.62,47.62,0,0,0,47.57,47.56H764.42A47.25,47.25,0,0,0,798,1020.5L904.51,914a47.25,47.25,0,0,0,13.94-33.64V197.25A47.62,47.62,0,0,0,870.89,149.68ZM794,976.75v-53A13.78,13.78,0,0,1,807.79,910h53Z"/><path d="M439.67,226.2H675a28.91,28.91,0,0,0,28.87-28.87V131.82A28.9,28.9,0,0,0,675,102.95H640.32a3.43,3.43,0,0,0-3.42,3.42v51.17a17.67,17.67,0,0,1-17.65,17.65H495.46a17.67,17.67,0,0,1-17.65-17.65V106.37a3.43,3.43,0,0,0-3.42-3.42H439.67a28.9,28.9,0,0,0-28.87,28.87v65.51A28.91,28.91,0,0,0,439.67,226.2Z"/><path d="M619.25,61.89a61.89,61.89,0,0,0-123.79,0v95.65H619.25Zm-61.89-8.41a25.3,25.3,0,0,1,7.46,49.47H549.9a25.3,25.3,0,0,1,7.46-49.47Z"/><path d="M287.78,311.41H675.43a16.9,16.9,0,0,0,0-33.79H287.78a16.9,16.9,0,0,0,0,33.79Z"/><path d="M287.78,396.54H675.43a16.9,16.9,0,1,0,0-33.79H287.78a16.9,16.9,0,1,0,0,33.79Z"/><path d="M270.89,464.77a16.9,16.9,0,0,0,16.9,16.9H826.93a16.9,16.9,0,1,0,0-33.79H287.78A16.9,16.9,0,0,0,270.89,464.77Z"/><path d="M826.93,533H287.78a16.9,16.9,0,1,0,0,33.79H826.93a16.9,16.9,0,1,0,0-33.79Z"/><path d="M826.93,618.15H287.78a16.9,16.9,0,1,0,0,33.79H826.93a16.9,16.9,0,1,0,0-33.79Z"/><path d="M843.83,720.17a16.9,16.9,0,0,0-16.9-16.9H287.78a16.9,16.9,0,1,0,0,33.79H826.93A16.9,16.9,0,0,0,843.83,720.17Z"/><rect x="739.79" y="302.96" width="104.04" height="104.03" rx="16.9" ry="16.9"/><polygon points="299.45 962.31 321.16 925.88 343.75 962.31 374.5 962.31 337.19 907.81 369.84 859.14 340.84 859.14 321.89 891.2 302.66 859.14 272.64 859.14 305.86 907.81 269.72 962.31 299.45 962.31"/><rect x="270.89" y="832.88" width="101.5" height="14"/><polygon points="727.25 956.24 727.25 853.06 691.21 853.06 668.74 919.22 668.15 919.22 644.66 853.06 609.21 853.06 609.21 956.24 632.67 956.24 632.09 883.23 632.52 883.23 658.61 956.24 676.1 956.24 702.91 883.23 703.35 883.23 702.76 956.24 727.25 956.24"/><rect x="610.92" y="832.88" width="114.09" height="14"/><path d="M1077.95,141.05a261.12,261.12,0,0,0-58.58-55.48l-5.13-3.49-5.24-3.3-2.62-1.64c-.88-.54-1.78-1-2.67-1.56l-5.34-3.08c-7.22-3.92-14.48-7.66-22-10.87a262.19,262.19,0,0,0-45.74-15.27c-1.93-.5-3.88-.88-5.83-1.29S921,44.24,919,43.87c-3.92-.65-7.79-1.43-11.71-1.92l-5.86-.81-5.87-.62-2.93-.31L889.72,40l-5.86-.42a284.86,284.86,0,0,0-46.45,1.3,289.15,289.15,0,0,0-44.85,8.75,295.59,295.59,0,0,0-42.22,15.51,291.09,291.09,0,0,1,43.77-6.75,275.74,275.74,0,0,1,43.57.28A262.47,262.47,0,0,1,879.84,66L885,67.38l2.54.71,2.52.79,5,1.58,5,1.74c3.32,1.1,6.54,2.48,9.79,3.71,1.61.65,3.2,1.37,4.8,2s3.19,1.35,4.75,2.11a221.89,221.89,0,0,1,35.55,20.46c5.56,3.84,10.81,8.08,15.93,12.37l3.75,3.32c.62.56,1.25,1.09,1.86,1.66l1.8,1.73,3.6,3.43,3.46,3.56a197.45,197.45,0,0,1,24.28,30.67c.35.55.69,1.11,1,1.66l-53.79-2.48c46.37,28.6,98.29,81.84,133,127,3.07-56.86,15.71-130.14,37.72-180Z"/></g></g></svg>