<svg xmlns="http://www.w3.org/2000/svg" viewBox="0 0 1279.32 638.22"><defs><style>.cls-1{fill:none;}</style></defs><title>TRANSPORTE TERRESTRE</title><g id="Capa_2" data-name="Capa 2"><g id="Pregunta_3" data-name="Pregunta 3"><path d="M957.42,494.46a71.88,71.88,0,1,1-71.85,71.88A71.86,71.86,0,0,1,957.42,494.46Zm0,108.8a36.93,36.93,0,1,0-36.95-36.92A36.93,36.93,0,0,0,957.42,603.26Z"/><path d="M1163.5,494.46a71.88,71.88,0,1,1-71.85,71.88A71.88,71.88,0,0,1,1163.5,494.46Zm0,108.8a36.93,36.93,0,1,0-36.93-36.92A36.94,36.94,0,0,0,1163.5,603.26Z"/><path d="M125.75,494.46a71.88,71.88,0,1,1-71.87,71.88A71.88,71.88,0,0,1,125.75,494.46Zm0,108.8a36.93,36.93,0,1,0-36.92-36.92A37,37,0,0,0,125.75,603.26Z"/><polygon class="cls-1" points="358.93 229.75 358.93 336.73 182.86 336.73 215.17 252.11 358.93 229.75"/><polygon class="cls-1" points="46.25 457.59 12.47 457.59 12.47 404.94 46.25 399.48 46.25 457.59"/><path d="M156.26,341.23l41.37-108.3L377.28,205V117.16h31.95v323.4h870.09v107.8h-28a89.83,89.83,0,0,0-176,0s0,0,0,0h-29.79a89.85,89.85,0,0,0-176.06,0H213.79a89.85,89.85,0,0,0-176.06,0H0V380.68Zm202.66-4.5v-107L215.17,252.11l-32.31,84.62ZM12.47,457.59H46.25V399.48l-33.78,5.46Z"/><path d="M465.93,0V399.48h813.39V0ZM561,354.9H525.08V61.33H561Zm82,0H607.12V61.33h35.93Zm82.06,0h-36V61.33h36Zm82,0H771.21V61.33h35.95Zm82,0H853.26V61.33h35.95Zm82,0H935.31V61.33h35.93Zm82.06,0h-36V61.33h36Zm82,0H1099.4V61.33h35.94Zm82.06,0h-36V61.33h36Z"/></g></g></svg>