<svg id="Capa_1" data-name="Capa 1" xmlns="http://www.w3.org/2000/svg" viewBox="0 0 30.39 21.38"><defs><style>.cls-1,.cls-2{fill:#fff;}.cls-1{fill-rule:evenodd;}</style></defs><title>logo-footer-oss</title><path class="cls-1" d="M34.48,6.37c.08,0,.14,0,.14-.11s-.05-.08-.11-.08H34.4v.19Zm-.08.3h-.11V6.12h.22c.14,0,.19,0,.19.14s-.05.16-.14.16l.16.24h-.11l-.14-.24H34.4Zm.08.14a.42.42,0,0,0,.41-.41A.4.4,0,0,0,34.48,6a.38.38,0,0,0-.38.41A.39.39,0,0,0,34.48,6.8ZM34,6.39a.5.5,0,0,1,.49-.49.49.49,0,0,1,.49.49.46.46,0,0,1-.49.46A.48.48,0,0,1,34,6.39Z" transform="translate(-5.4 -2.81)"/><path class="cls-1" d="M14.93,6.08a3.54,3.54,0,1,1-3.54,3.54,3.54,3.54,0,0,1,3.54-3.54m0-3.26a6.8,6.8,0,1,1-6.8,6.8A6.8,6.8,0,0,1,14.93,2.81Z" transform="translate(-5.4 -2.81)"/><path class="cls-1" d="M27.32,5.28a6.79,6.79,0,0,1,5.14-2.35L33.68,4.5,32.46,6.2a3.53,3.53,0,0,0-1.34.26h0a7.7,7.7,0,0,1-3.83-1.17" transform="translate(-5.4 -2.81)"/><path class="cls-1" d="M19.8,9.94c0-1.21-1-2.67-.47-3.66a6.8,6.8,0,0,1,5.93-3.47l1.22,1.57L25.26,6.08c-2,0-4.89,1.58-4.89,3.54,0,3.76-1.69,6.8-5.45,6.8V13.15c2,0,4.88-1.26,4.88-3.21" transform="translate(-5.4 -2.81)"/><path class="cls-1" d="M18.46,9.61a3.53,3.53,0,0,0-1.35-2.78,15.59,15.59,0,0,1,2.57-1.1,6.77,6.77,0,0,0-1.22,3.88" transform="translate(-5.4 -2.81)"/><path class="cls-1" d="M14.93,16.42A6.77,6.77,0,0,1,10.73,15,10.6,10.6,0,0,1,12,11.62a3.54,3.54,0,0,0,6.45-2,6.77,6.77,0,0,1,1.22-3.88A11.31,11.31,0,0,1,26,5.07l-.72,1a3.54,3.54,0,0,0-3.54,3.54,6.8,6.8,0,0,1-6.8,6.8" transform="translate(-5.4 -2.81)"/><path class="cls-1" d="M25.66,9.73a6.77,6.77,0,0,1,1.66-4.45,16.18,16.18,0,0,1,3.83,1.17,3.54,3.54,0,0,0-2.22,3.28,6.8,6.8,0,0,1-6.8,6.8V13.27a3.54,3.54,0,0,0,3.54-3.54" transform="translate(-5.4 -2.81)"/><path class="cls-2" d="M34.93,21.76v-.14h.58a.12.12,0,0,0,.09,0,.12.12,0,0,0,0-.17.12.12,0,0,0-.09,0h-.35a.22.22,0,0,1-.21-.12.24.24,0,0,1,0-.12.24.24,0,0,1,.24-.24h.6V21h-.59a.1.1,0,0,0-.07,0,.09.09,0,0,0,0,.07.09.09,0,0,0,0,.07.1.1,0,0,0,.07,0h.36a.25.25,0,0,1,.23.13.26.26,0,0,1,0,.13.24.24,0,0,1-.08.19.27.27,0,0,1-.19.07Zm-.34-.49v.49h-.14v-.49a.26.26,0,0,0-.07-.18.25.25,0,0,0-.35,0,.26.26,0,0,0-.07.18v.49h-.14v-.86H34V21l.12-.07a.33.33,0,0,1,.14,0,.35.35,0,0,1,.26.11A.37.37,0,0,1,34.6,21.27ZM33,21.78a.46.46,0,0,1-.33-.13.41.41,0,0,1-.14-.31.41.41,0,0,1,.14-.31.46.46,0,0,1,.33-.13.47.47,0,0,1,.33.13.41.41,0,0,1,.14.31.41.41,0,0,1-.14.31A.47.47,0,0,1,33,21.78ZM33,21a.33.33,0,0,0-.23.09.3.3,0,0,0-.1.22.29.29,0,0,0,.1.22.33.33,0,0,0,.23.09.33.33,0,0,0,.23-.09.3.3,0,0,0,0-.44A.33.33,0,0,0,33,21Zm-1-.27a.07.07,0,0,1,0,0l0,0,0,0a.06.06,0,0,1,0,0,.07.07,0,0,1,0,0l0,0,0,0A.07.07,0,0,1,32.07,20.75Zm.14,1h-.14v-.87h.14Zm-.9-1.09h.14v.23h.3V21h-.3v.42a.21.21,0,0,0,0,.06l0,.05a.22.22,0,0,0,.19.08h.1v.12h-.18l-.09,0a.24.24,0,0,1-.14-.09.26.26,0,0,1-.05-.16Zm-1.1.72v-.49h.14v.48a.26.26,0,0,0,.07.18.23.23,0,0,0,.17.07.23.23,0,0,0,.18-.07.25.25,0,0,0,.07-.18v-.49H31v.86h-.14v-.09l-.12.07a.33.33,0,0,1-.14,0,.35.35,0,0,1-.26-.11A.37.37,0,0,1,30.2,21.4Zm-.35.36h-.14V20.68h.14Zm-1,0a.46.46,0,0,1-.33-.13.41.41,0,0,1-.14-.31.41.41,0,0,1,.14-.31.46.46,0,0,1,.33-.13.47.47,0,0,1,.33.13.41.41,0,0,1,.14.31.41.41,0,0,1-.14.31A.47.47,0,0,1,28.9,21.78Zm0-.75a.33.33,0,0,0-.23.09.3.3,0,0,0-.1.22.29.29,0,0,0,.1.22.33.33,0,0,0,.23.09.33.33,0,0,0,.23-.09.3.3,0,0,0,0-.44A.33.33,0,0,0,28.9,21Zm-1.62.74v-.14h.58a.12.12,0,0,0,.09,0,.12.12,0,0,0,0-.17.12.12,0,0,0-.09,0H27.5a.22.22,0,0,1-.21-.12.23.23,0,0,1,0-.12.24.24,0,0,1,.24-.24h.6V21h-.59a.1.1,0,0,0-.07,0,.09.09,0,0,0,0,.07.09.09,0,0,0,0,.07.1.1,0,0,0,.07,0h.36a.25.25,0,0,1,.23.13.25.25,0,0,1,0,.13.24.24,0,0,1-.08.19.27.27,0,0,1-.19.07Zm-1.84,0v-.14H26a.12.12,0,0,0,.09,0,.12.12,0,0,0,0-.17.12.12,0,0,0-.09,0h-.35a.22.22,0,0,1-.21-.12.23.23,0,0,1,0-.12.24.24,0,0,1,.24-.24h.6V21h-.59a.1.1,0,0,0-.07,0,.09.09,0,0,0,0,.07.09.09,0,0,0,0,.07.1.1,0,0,0,.07,0H26a.25.25,0,0,1,.23.13.26.26,0,0,1,0,.13.24.24,0,0,1-.08.19.27.27,0,0,1-.19.07Zm-.4-.62a.35.35,0,0,0-.26-.13.3.3,0,0,0-.22.09.31.31,0,0,0-.09.22.3.3,0,0,0,.09.22.3.3,0,0,0,.22.09.31.31,0,0,0,.18-.05.28.28,0,0,0,.11-.14l.09.09a.39.39,0,0,1-.36.23.47.47,0,0,1-.33-.12.41.41,0,0,1-.14-.32.42.42,0,0,1,.13-.32.44.44,0,0,1,.32-.13.42.42,0,0,1,.36.18Zm-1.2-.4a.06.06,0,0,1,0,0l0,0,0,0a.06.06,0,0,1,0,0,.07.07,0,0,1,0,0l0,0,0,0A.07.07,0,0,1,23.84,20.75Zm.14,1h-.14v-.87H24Zm-.9-1.09h.14v.23h.3V21h-.3v.42a.21.21,0,0,0,0,.06l0,.05a.22.22,0,0,0,.19.08h.1v.12h-.18l-.09,0a.24.24,0,0,1-.14-.09.26.26,0,0,1-.05-.16Zm-1.18,1.09v-.14h.58a.12.12,0,0,0,.09,0,.12.12,0,0,0,0-.17.12.12,0,0,0-.09,0h-.35a.22.22,0,0,1-.21-.12.23.23,0,0,1,0-.12.24.24,0,0,1,.24-.24h.6V21h-.59a.1.1,0,0,0-.07,0,.09.09,0,0,0,0,.07.09.09,0,0,0,0,.07.1.1,0,0,0,.07,0h.36a.25.25,0,0,1,.23.13.26.26,0,0,1,0,.13.24.24,0,0,1-.08.19.27.27,0,0,1-.19.07Zm-.48-1a.07.07,0,0,1,0,0l0,0,0,0a.06.06,0,0,1,0,0,.07.07,0,0,1,0,0l0,0,0,0A.07.07,0,0,1,21.41,20.75Zm.14,1H21.4v-.87h.14ZM20.92,21h-.19a.31.31,0,0,0-.22.09.31.31,0,0,0,0,.44.31.31,0,0,0,.22.09h.19Zm-.21.72a.45.45,0,0,1-.23-.06.42.42,0,0,1-.16-.17.43.43,0,0,1,0-.2A.41.41,0,0,1,20.4,21a.44.44,0,0,1,.31-.13h.33v.88a.28.28,0,0,1,0,.16.19.19,0,0,1-.14.09h-.27v-.12h.1a.22.22,0,0,0,.19-.07.15.15,0,0,0,0-.09Zm-1.22,0a.46.46,0,0,1-.33-.13.41.41,0,0,1-.14-.31.41.41,0,0,1,.14-.31.46.46,0,0,1,.33-.13.47.47,0,0,1,.33.13.41.41,0,0,1,.14.31.41.41,0,0,1-.14.31A.47.47,0,0,1,19.5,21.78Zm0-.75a.33.33,0,0,0-.23.09.3.3,0,0,0-.1.22.29.29,0,0,0,.1.22.33.33,0,0,0,.23.09.33.33,0,0,0,.23-.09.3.3,0,0,0,0-.44A.33.33,0,0,0,19.5,21Zm-.81.74h-.14V20.68h.14Zm-1.59-1.09h.14v.23h.3V21h-.3v.42a.21.21,0,0,0,0,.06l0,.05a.22.22,0,0,0,.19.08h.1v.12h-.18l-.09,0a.25.25,0,0,1-.14-.09.26.26,0,0,1-.05-.16Zm-.53.34a.23.23,0,0,0-.17.07.25.25,0,0,0-.07.18v.49h-.14v-.86h.14V21l.12-.07a.33.33,0,0,1,.14,0,.35.35,0,0,1,.29.14l-.12.07A.23.23,0,0,0,16.56,21Zm-1.16.75a.46.46,0,0,1-.33-.13.41.41,0,0,1-.14-.31.41.41,0,0,1,.14-.31.46.46,0,0,1,.33-.13.47.47,0,0,1,.33.13.41.41,0,0,1,.14.31.41.41,0,0,1-.14.31A.47.47,0,0,1,15.4,21.78Zm0-.75a.33.33,0,0,0-.23.09.3.3,0,0,0-.1.22.29.29,0,0,0,.1.22.33.33,0,0,0,.23.09.33.33,0,0,0,.23-.09.3.3,0,0,0,0-.44A.33.33,0,0,0,15.4,21Zm-.81.32a.41.41,0,0,0-.13-.31.44.44,0,0,0-.32-.12h-.33V22h.13v-.29h.21a.45.45,0,0,0,.23-.06.43.43,0,0,0,.21-.37ZM13.94,21h.19a.31.31,0,0,1,.22.08.28.28,0,0,1,.09.21.28.28,0,0,1-.09.22.31.31,0,0,1-.22.09h-.19Z" transform="translate(-5.4 -2.81)"/><path class="cls-2" d="M9.78,22.28V22H11a.27.27,0,0,0,.19-.07.25.25,0,0,0,0-.37.26.26,0,0,0-.19-.08h-.76a.48.48,0,0,1-.44-.25A.5.5,0,0,1,9.76,21a.51.51,0,0,1,.51-.51h1.28v.3H10.27a.22.22,0,0,0-.16.06.2.2,0,0,0-.06.15.2.2,0,0,0,.06.15.22.22,0,0,0,.16.06H11a.53.53,0,0,1,.49.28.55.55,0,0,1,.07.28.52.52,0,0,1-.17.4.59.59,0,0,1-.41.16Zm-2.11,0V22H8.92a.27.27,0,0,0,.19-.07.25.25,0,0,0,0-.37.26.26,0,0,0-.19-.08H8.16a.48.48,0,0,1-.44-.25A.5.5,0,0,1,7.64,21a.51.51,0,0,1,.51-.51H9.43v.3H8.16a.22.22,0,0,0-.16.06.2.2,0,0,0-.06.15.2.2,0,0,0,.06.15.22.22,0,0,0,.16.06h.77a.53.53,0,0,1,.49.28.55.55,0,0,1,.07.28.52.52,0,0,1-.17.4.59.59,0,0,1-.41.16Zm-1.27,0a1,1,0,0,1-.7-.27.91.91,0,0,1,0-1.34,1,1,0,0,1,.7-.28,1,1,0,0,1,.7.28A.91.91,0,0,1,7.1,22,1,1,0,0,1,6.39,22.31Zm0-1.62a.7.7,0,0,0-.5.2.63.63,0,0,0-.21.48.63.63,0,0,0,.21.47.71.71,0,0,0,.5.19.72.72,0,0,0,.5-.19.64.64,0,0,0,0-1A.72.72,0,0,0,6.39,20.69Z" transform="translate(-5.4 -2.81)"/><rect class="cls-2" x="7.04" y="15.73" width="0.21" height="5.65"/><path class="cls-2" d="M14.37,12.12a0,0,0,0,0,0,0h1.27l0,0a.06.06,0,0,0,0,0V7.3a.06.06,0,0,0,0,0l0,0H14.18l0,0a.08.08,0,0,0,0,0l-.46,1.36a0,0,0,0,0,0,0h.69a0,0,0,0,1,0,0Z" transform="translate(-5.4 -2.81)"/><path class="cls-2" d="M14.37,12.12a0,0,0,0,0,0,0h1.27l0,0a.06.06,0,0,0,0,0V9.42a7.81,7.81,0,0,0-1.34.43Z" transform="translate(-5.4 -2.81)"/></svg>