<?xml version="1.0" encoding="UTF-8"?>
<svg width="24px" height="33px" viewBox="0 0 24 33" version="1.1" xmlns="http://www.w3.org/2000/svg" xmlns:xlink="http://www.w3.org/1999/xlink">
    <!-- Generator: Sketch 48.1 (47250) - http://www.bohemiancoding.com/sketch -->
    <title>mk-tijuana</title>
    <desc>Created with Sketch.</desc>
    <defs></defs>
    <g id="Page-1" stroke="none" stroke-width="1" fill="none" fill-rule="evenodd">
        <g id="mk-tijuana">
            <path d="M10.27,3.911 C7.124,4.556 4.628,7.171 4.13,10.344 C4.068,10.744 4.037,11.15 4.037,11.556 C4.037,14.804 6.132,17.786 9.184,18.894 C12.259,20.01 15.787,19.033 17.869,16.517 C19.955,13.996 20.232,10.335 18.536,7.534 C17.11,5.177 14.507,3.755 11.805,3.755 C11.294,3.755 10.781,3.806 10.27,3.911 Z" id="Path" fill="#FFFFFF"></path>
            <path d="M9.189,0.319 C6.247,1.009 3.649,2.88 2.047,5.442 C1.233,6.74 0.684,8.2 0.441,9.714 C0.177,11.365 0.316,13.042 0.671,14.669 C1.338,17.733 2.736,20.616 4.332,23.296 C5.722,25.631 7.307,27.852 9.012,29.967 C9.53,30.608 10.06,31.241 10.605,31.859 C10.89,32.182 11.25,32.68 11.657,32.82 C11.725,32.844 11.825,32.892 11.897,32.894 C11.991,32.899 12.113,32.847 12.203,32.813 C12.419,32.733 12.603,32.56 12.758,32.394 C12.836,32.31 12.912,32.223 12.988,32.137 C13.445,31.621 13.889,31.092 14.325,30.557 C15.965,28.545 17.49,26.431 18.853,24.221 C20.501,21.545 21.96,18.685 22.779,15.639 C23.225,13.983 23.486,12.239 23.334,10.524 C23.174,8.719 22.583,6.961 21.618,5.426 C21.157,4.692 20.612,4.01 19.998,3.397 C17.819,1.217 14.828,0.019 11.791,0.019 C10.922,0.019 10.049,0.117 9.189,0.319 Z M10.588,18.883 C7.937,18.43 5.688,16.502 4.817,13.961 C3.926,11.364 4.58,8.416 6.475,6.432 C8.503,4.309 11.677,3.571 14.432,4.604 C17.733,5.842 19.752,9.352 19.147,12.831 C19.071,13.265 18.956,13.693 18.804,14.108 C17.727,17.042 14.86,18.985 11.799,18.985 C11.397,18.986 10.993,18.952 10.588,18.883 Z" id="bg" fill="#1384C3" fill-rule="nonzero"></path>
            <path d="M11.836,0.626 L11.836,3.939 C11.836,3.97 11.815,4.11 11.836,4.135 C11.851,4.153 11.97,4.149 12.056,4.146 C12.097,4.144 12.131,4.142 12.141,4.142 C12.256,4.147 12.37,4.153 12.484,4.163 C12.691,4.181 12.896,4.209 13.101,4.244 C13.544,4.321 13.978,4.436 14.4,4.592 C15.938,5.161 17.266,6.244 18.134,7.635 C19.136,9.242 19.487,11.207 19.103,13.062 C18.729,14.866 17.676,16.483 16.19,17.568 C15.462,18.101 14.635,18.497 13.764,18.733 C13.326,18.851 12.876,18.93 12.422,18.966 C12.39,18.969 12.329,18.967 12.26,18.966 C12.094,18.962 11.87,18.958 11.836,19.009 C11.798,19.067 11.836,19.287 11.836,19.354 L11.836,32.596 C11.836,32.645 11.805,32.831 11.836,32.873 C11.896,32.953 12.15,32.836 12.217,32.809 C12.424,32.726 12.604,32.559 12.756,32.396 C12.972,32.164 13.178,31.923 13.384,31.683 C14.622,30.243 15.788,28.738 16.886,27.189 C18.486,24.928 19.95,22.556 21.128,20.047 C22.365,17.413 23.38,14.498 23.38,11.555 C23.38,10.277 23.169,9 22.751,7.792 C22.031,5.702 20.7,3.844 18.963,2.478 C16.941,0.887 14.409,0.014 11.836,0.014 L11.836,0.626 Z" id="shadow" fill-opacity="0.3" fill="#000000" fill-rule="nonzero"></path>
            <path d="M10.27,3.911 C7.124,4.556 4.628,7.171 4.13,10.344 C4.068,10.744 4.037,11.15 4.037,11.556 C4.037,14.804 6.132,17.786 9.184,18.894 C12.259,20.01 15.787,19.033 17.869,16.517 C19.955,13.996 20.232,10.335 18.536,7.534 C17.11,5.177 14.507,3.755 11.805,3.755 C11.294,3.755 10.781,3.806 10.27,3.911 Z M7.411,15.725 C5.742,13.954 5.287,11.284 6.29,9.061 C7.487,6.407 10.499,4.939 13.328,5.652 C13.678,5.74 14.019,5.86 14.347,6.007 C14.351,6.009 14.355,6.011 14.36,6.012 C14.361,6.013 14.363,6.014 14.365,6.015 C14.368,6.016 14.371,6.017 14.373,6.019 L14.374,6.019 C16.966,7.204 18.425,10.13 17.788,12.911 C17.297,15.058 15.618,16.815 13.499,17.414 C12.964,17.565 12.416,17.639 11.87,17.639 C10.208,17.639 8.572,16.958 7.411,15.725 Z" id="circle" fill="#107FB7" fill-rule="nonzero"></path>
        </g>
    </g>
</svg>