<?xml version="1.0" encoding="UTF-8"?>
<svg width="52px" height="37px" viewBox="0 0 52 37" version="1.1" xmlns="http://www.w3.org/2000/svg" xmlns:xlink="http://www.w3.org/1999/xlink">
    <!-- Generator: Sketch 48.1 (47250) - http://www.bohemiancoding.com/sketch -->
    <title>oss</title>
    <desc>Created with Sketch.</desc>
    <defs></defs>
    <g id="Page-1" stroke="none" stroke-width="1" fill="none" fill-rule="evenodd">
        <g id="oss">
            <path d="M48,5.828 C48,5.368 48.414,5 48.828,5 C49.288,5 49.656,5.368 49.656,5.828 C49.656,6.288 49.288,6.61 48.828,6.61 C48.414,6.61 48,6.288 48,5.828 Z M48.828,6.518 C49.196,6.518 49.518,6.196 49.518,5.828 C49.518,5.414 49.196,5.138 48.828,5.138 C48.46,5.138 48.184,5.414 48.184,5.828 C48.184,6.196 48.46,6.518 48.828,6.518 Z M48.69,6.288 L48.506,6.288 L48.506,5.368 L48.874,5.368 C49.104,5.368 49.196,5.414 49.196,5.598 C49.196,5.782 49.104,5.874 48.966,5.874 L49.242,6.288 L49.058,6.288 L48.828,5.874 L48.691,5.874 L48.691,6.288 L48.69,6.288 Z M48.827,5.782 C48.966,5.782 49.058,5.736 49.058,5.598 C49.058,5.506 48.966,5.46 48.874,5.46 L48.69,5.46 L48.69,5.782 L48.828,5.782 L48.827,5.782 Z" id="Shape" fill="#0094D9"></path>
            <path d="M15.54,0 C21.913,0 27.08,5.168 27.08,11.54 C27.08,17.913 21.913,23.081 15.54,23.081 C9.168,23.081 4,17.913 4,11.54 C4,5.168 9.168,0 15.54,0 M15.54,5.539 C18.854,5.539 21.541,8.227 21.541,11.54 C21.541,14.854 18.854,17.541 15.54,17.541 C12.226,17.541 9.539,14.854 9.539,11.54 C9.539,8.227 12.226,5.539 15.54,5.539" id="Shape" fill="#44B549"></path>
            <path d="M37,3.985 C39.116,1.544 42.239,0 45.723,0 L47.787,2.665 L45.723,5.539 C44.921,5.539 44.155,5.697 43.456,5.983 L43.491,5.968 C41.155,5.769 38.881,5.295 37,3.985" id="Shape" fill="#0080B1"></path>
            <path d="M24.275,12.098 C24.275,10.048 22.536,7.565 23.473,5.896 C25.45,2.378 29.219,0 33.541,0 L35.605,2.666 L33.541,5.54 C30.227,5.54 25.242,8.227 25.242,11.541 C25.242,17.913 22.372,23.081 16,23.081 L16,17.542 C19.313,17.542 24.275,15.412 24.275,12.098" id="Shape" fill="#44B549"></path>
            <path d="M21.291,11.59 C21.291,9.677 20.395,7.972 19,6.873 C20.365,6.133 21.823,5.504 23.358,5 C22.055,6.869 21.291,9.14 21.291,11.59" id="Shape" fill="#3A9842"></path>
            <path d="M16.113,23.6021134 C13.43,23.6021134 10.96,22.6861134 9,21.1491134 C9.393,19.1431134 10.136,17.2361134 11.175,15.4721134 C12.259,17.0371134 14.066,18.0631134 16.113,18.0631134 C19.427,18.0631134 22.114,15.3751134 22.114,12.0621134 C22.114,9.61211345 22.878,7.34011345 24.181,5.47211345 C26.849,4.30611345 31.771,3.50411345 34.881,4.35411345 L33.654,6.06111345 C30.341,6.06111345 27.653,8.74811345 27.653,12.0621134 C27.653,18.4341134 22.486,23.6021134 16.113,23.6021134" id="Shape" fill="#62BA46"></path>
            <path d="M34.001,11.555 C34.001,8.666 35.063,6.024 36.818,4 C39.118,4.404 41.298,5.079 43.31,5.983 C41.101,6.869 39.54,9.03 39.54,11.555 C39.54,17.927 34.373,23.095 28,23.095 L28,17.556 C31.314,17.556 34.001,14.869 34.001,11.555" id="Shape" fill="#0094D9"></path>
            <path d="M14.226,30.618 L14.556,30.618 C14.705,30.618 14.829,30.665 14.93,30.759 C15.031,30.852 15.081,30.972 15.081,31.118 C15.081,31.265 15.03,31.387 14.926,31.484 C14.824,31.581 14.698,31.629 14.549,31.629 L14.226,31.629 L14.226,30.618 Z M15.325,31.118 C15.325,30.91 15.251,30.736 15.103,30.596 C14.955,30.456 14.777,30.386 14.568,30.386 L14,30.386 L14,32.324 L14.226,32.324 L14.226,31.841 L14.579,31.841 C14.722,31.841 14.852,31.806 14.97,31.737 C15.087,31.668 15.178,31.572 15.242,31.448 C15.297,31.343 15.325,31.233 15.325,31.118 Z M16.699,30.581 C16.546,30.581 16.414,30.633 16.304,30.737 C16.194,30.84 16.139,30.967 16.139,31.115 C16.141,31.264 16.196,31.389 16.307,31.49 C16.417,31.591 16.548,31.641 16.699,31.641 C16.853,31.641 16.985,31.591 17.096,31.49 C17.207,31.389 17.263,31.264 17.264,31.115 C17.266,30.967 17.21,30.84 17.098,30.737 C16.986,30.633 16.853,30.581 16.699,30.581 Z M16.699,31.862 C16.486,31.862 16.301,31.79 16.146,31.645 C15.991,31.501 15.914,31.325 15.914,31.115 C15.914,30.906 15.991,30.729 16.146,30.583 C16.301,30.437 16.486,30.365 16.699,30.365 C16.915,30.365 17.101,30.437 17.257,30.583 C17.414,30.729 17.492,30.906 17.492,31.115 C17.492,31.325 17.414,31.501 17.257,31.645 C17.101,31.79 16.915,31.862 16.699,31.862 Z M18.661,30.581 C18.542,30.581 18.443,30.622 18.365,30.705 C18.287,30.788 18.248,30.891 18.248,31.013 L18.248,31.841 L18.008,31.841 L18.008,30.386 L18.248,30.386 L18.248,30.537 C18.325,30.476 18.392,30.434 18.45,30.411 C18.52,30.38 18.597,30.365 18.682,30.365 C18.879,30.365 19.04,30.442 19.166,30.597 L18.961,30.709 C18.882,30.623 18.782,30.581 18.661,30.581 Z M19.566,30 L19.796,30 L19.796,30.386 L20.3,30.386 L20.3,30.604 L19.796,30.604 L19.796,31.319 C19.796,31.341 19.803,31.372 19.816,31.414 C19.829,31.456 19.842,31.485 19.854,31.502 C19.915,31.587 20.022,31.629 20.175,31.629 L20.347,31.629 L20.347,31.841 C20.338,31.841 20.288,31.841 20.198,31.843 C20.132,31.845 20.077,31.845 20.036,31.843 C19.977,31.838 19.926,31.83 19.884,31.817 C19.79,31.791 19.713,31.738 19.654,31.657 C19.595,31.576 19.566,31.487 19.566,31.388 L19.566,30 Z M22.264,31.841 L22.024,31.841 L22.024,30.002 L22.264,30.002 L22.264,31.841 Z M23.645,30.581 C23.491,30.581 23.36,30.633 23.25,30.737 C23.14,30.84 23.085,30.967 23.085,31.115 C23.086,31.264 23.142,31.389 23.252,31.49 C23.362,31.591 23.493,31.641 23.645,31.641 C23.798,31.641 23.93,31.591 24.041,31.49 C24.152,31.389 24.208,31.264 24.21,31.115 C24.211,30.967 24.156,30.84 24.043,30.737 C23.931,30.633 23.798,30.581 23.645,30.581 Z M23.645,31.862 C23.431,31.862 23.247,31.79 23.092,31.645 C22.937,31.501 22.859,31.325 22.859,31.115 C22.859,30.906 22.937,30.729 23.092,30.583 C23.247,30.437 23.431,30.365 23.645,30.365 C23.86,30.365 24.046,30.437 24.203,30.583 C24.359,30.729 24.437,30.906 24.437,31.115 C24.437,31.325 24.359,31.501 24.203,31.645 C24.046,31.79 23.86,31.862 23.645,31.862 Z M25.707,31.841 C25.564,31.841 25.434,31.806 25.317,31.737 C25.199,31.668 25.107,31.572 25.042,31.448 C24.988,31.343 24.961,31.23 24.961,31.111 C24.961,30.903 25.035,30.728 25.182,30.587 C25.329,30.445 25.507,30.374 25.715,30.374 C25.727,30.374 25.762,30.373 25.824,30.369 C25.878,30.368 25.921,30.368 25.952,30.369 C25.998,30.371 26.033,30.376 26.058,30.386 L26.283,30.386 L26.283,31.873 C26.283,31.976 26.256,32.068 26.2,32.15 C26.141,32.238 26.064,32.289 25.967,32.303 C25.871,32.317 25.719,32.324 25.509,32.324 L25.509,32.115 C25.53,32.115 25.558,32.116 25.596,32.117 L25.682,32.117 C25.835,32.117 25.942,32.076 26.002,31.992 C26.041,31.937 26.06,31.887 26.058,31.841 L25.707,31.841 Z M26.058,30.618 C26.035,30.606 26.001,30.598 25.958,30.595 C25.927,30.592 25.887,30.591 25.837,30.593 C25.766,30.594 25.73,30.595 25.73,30.595 C25.583,30.595 25.458,30.644 25.356,30.742 C25.254,30.841 25.203,30.964 25.203,31.111 C25.203,31.26 25.254,31.383 25.358,31.482 C25.462,31.58 25.588,31.629 25.737,31.629 L26.058,31.629 L26.058,30.618 Z M27.118,31.841 L26.879,31.841 L26.879,30.365 L27.118,30.365 L27.118,31.841 Z M26.888,30.123 C26.888,30.092 26.899,30.065 26.922,30.043 C26.944,30.02 26.971,30.009 27.002,30.009 C27.035,30.009 27.062,30.02 27.085,30.043 C27.107,30.065 27.118,30.092 27.118,30.123 C27.118,30.155 27.107,30.183 27.085,30.206 C27.062,30.228 27.035,30.239 27.002,30.239 C26.971,30.239 26.944,30.228 26.922,30.206 C26.899,30.183 26.888,30.155 26.888,30.123 Z M27.702,31.841 L27.702,31.599 L28.694,31.599 C28.752,31.599 28.801,31.579 28.843,31.54 C28.885,31.5 28.906,31.452 28.906,31.394 C28.906,31.337 28.885,31.289 28.844,31.249 C28.803,31.21 28.753,31.19 28.694,31.19 L28.092,31.19 C27.936,31.19 27.819,31.124 27.741,30.992 C27.704,30.929 27.686,30.86 27.686,30.788 C27.686,30.678 27.725,30.583 27.803,30.504 C27.881,30.425 27.976,30.386 28.088,30.386 L29.099,30.386 L29.099,30.623 L28.094,30.623 C28.047,30.623 28.006,30.639 27.971,30.671 C27.937,30.704 27.92,30.744 27.92,30.79 C27.92,30.838 27.937,30.878 27.971,30.911 C28.006,30.943 28.047,30.96 28.094,30.96 L28.708,30.96 C28.885,30.96 29.015,31.033 29.099,31.181 C29.138,31.249 29.157,31.322 29.157,31.399 C29.157,31.529 29.112,31.635 29.023,31.717 C28.934,31.8 28.825,31.841 28.697,31.841 L27.702,31.841 Z M29.708,30 L29.938,30 L29.938,30.386 L30.443,30.386 L30.443,30.604 L29.938,30.604 L29.938,31.319 C29.938,31.341 29.945,31.372 29.958,31.414 C29.971,31.456 29.984,31.485 29.997,31.502 C30.057,31.587 30.164,31.629 30.317,31.629 L30.489,31.629 L30.489,31.841 C30.48,31.841 30.43,31.841 30.34,31.843 C30.274,31.845 30.22,31.845 30.178,31.843 C30.119,31.838 30.069,31.83 30.027,31.817 C29.932,31.791 29.855,31.738 29.797,31.657 C29.738,31.576 29.708,31.487 29.708,31.388 L29.708,30 Z M31.243,31.841 L31.003,31.841 L31.003,30.365 L31.243,30.365 L31.243,31.841 Z M31.013,30.123 C31.013,30.092 31.024,30.065 31.047,30.043 C31.069,30.02 31.096,30.009 31.127,30.009 C31.16,30.009 31.187,30.02 31.21,30.043 C31.232,30.065 31.243,30.092 31.243,30.123 C31.243,30.155 31.232,30.183 31.21,30.206 C31.187,30.228 31.16,30.239 31.127,30.239 C31.096,30.239 31.069,30.228 31.047,30.206 C31.024,30.183 31.013,30.155 31.013,30.123 Z M33.052,30.795 C32.92,30.652 32.773,30.581 32.612,30.581 C32.468,30.581 32.344,30.633 32.24,30.739 C32.137,30.844 32.085,30.97 32.085,31.115 C32.085,31.26 32.137,31.383 32.24,31.486 C32.344,31.589 32.468,31.641 32.612,31.641 C32.722,31.641 32.822,31.611 32.911,31.552 C33,31.494 33.063,31.414 33.101,31.313 L33.259,31.464 C33.117,31.729 32.913,31.862 32.645,31.862 C32.423,31.862 32.238,31.793 32.089,31.657 C31.934,31.516 31.857,31.336 31.857,31.115 C31.857,30.903 31.93,30.725 32.078,30.581 C32.225,30.437 32.406,30.365 32.622,30.365 C32.886,30.365 33.091,30.466 33.235,30.669 L33.052,30.795 Z M33.728,31.841 L33.728,31.599 L34.721,31.599 C34.778,31.599 34.828,31.579 34.87,31.54 C34.912,31.5 34.933,31.452 34.933,31.394 C34.933,31.337 34.912,31.289 34.871,31.249 C34.83,31.21 34.78,31.19 34.721,31.19 L34.119,31.19 C33.963,31.19 33.846,31.124 33.768,30.992 C33.731,30.929 33.712,30.86 33.712,30.788 C33.712,30.678 33.751,30.583 33.83,30.504 C33.908,30.425 34.003,30.386 34.114,30.386 L35.125,30.386 L35.125,30.623 L34.121,30.623 C34.073,30.623 34.032,30.639 33.998,30.671 C33.964,30.704 33.947,30.744 33.947,30.79 C33.947,30.838 33.964,30.878 33.998,30.911 C34.032,30.943 34.073,30.96 34.121,30.96 L34.735,30.96 C34.912,30.96 35.042,31.033 35.125,31.181 C35.164,31.249 35.184,31.322 35.184,31.399 C35.184,31.529 35.139,31.635 35.05,31.717 C34.961,31.8 34.852,31.841 34.723,31.841 L33.728,31.841 Z M36.844,31.841 L36.844,31.599 L37.836,31.599 C37.894,31.599 37.943,31.579 37.985,31.54 C38.027,31.5 38.048,31.452 38.048,31.394 C38.048,31.337 38.027,31.289 37.986,31.249 C37.945,31.21 37.895,31.19 37.836,31.19 L37.235,31.19 C37.078,31.19 36.961,31.124 36.884,30.992 C36.846,30.929 36.828,30.86 36.828,30.788 C36.828,30.678 36.867,30.583 36.945,30.504 C37.023,30.425 37.118,30.386 37.23,30.386 L38.241,30.386 L38.241,30.623 L37.237,30.623 C37.189,30.623 37.148,30.639 37.114,30.671 C37.08,30.704 37.062,30.744 37.062,30.79 C37.062,30.838 37.08,30.878 37.114,30.911 C37.148,30.943 37.189,30.96 37.237,30.96 L37.85,30.96 C38.027,30.96 38.157,31.033 38.241,31.181 C38.28,31.249 38.299,31.322 38.299,31.399 C38.299,31.529 38.255,31.635 38.165,31.717 C38.076,31.8 37.967,31.841 37.839,31.841 L36.844,31.841 Z M39.599,30.581 C39.446,30.581 39.314,30.633 39.204,30.737 C39.094,30.84 39.039,30.967 39.039,31.115 C39.041,31.264 39.096,31.389 39.206,31.49 C39.316,31.591 39.447,31.641 39.599,31.641 C39.753,31.641 39.885,31.591 39.996,31.49 C40.106,31.389 40.162,31.264 40.164,31.115 C40.166,30.967 40.11,30.84 39.998,30.737 C39.886,30.633 39.753,30.581 39.599,30.581 Z M39.599,31.862 C39.385,31.862 39.201,31.79 39.046,31.645 C38.891,31.501 38.813,31.325 38.813,31.115 C38.813,30.906 38.891,30.729 39.046,30.583 C39.201,30.437 39.385,30.365 39.599,30.365 C39.815,30.365 40.001,30.437 40.157,30.583 C40.314,30.729 40.392,30.906 40.392,31.115 C40.392,31.325 40.314,31.501 40.157,31.645 C40.001,31.79 39.815,31.862 39.599,31.862 Z M41.213,31.841 L40.973,31.841 L40.973,30.002 L41.213,30.002 L41.213,31.841 Z M41.808,31.222 L41.808,30.388 L42.041,30.388 L42.041,31.211 C42.041,31.332 42.079,31.434 42.157,31.518 C42.234,31.601 42.333,31.643 42.452,31.643 C42.573,31.643 42.673,31.602 42.751,31.519 C42.829,31.436 42.868,31.334 42.868,31.213 L42.868,30.388 L43.105,30.388 L43.105,31.841 L42.868,31.841 L42.868,31.687 C42.791,31.748 42.723,31.79 42.666,31.813 C42.596,31.844 42.519,31.859 42.433,31.859 C42.258,31.859 42.11,31.797 41.99,31.672 C41.869,31.547 41.808,31.397 41.808,31.222 Z M43.675,30 L43.905,30 L43.905,30.386 L44.409,30.386 L44.409,30.604 L43.905,30.604 L43.905,31.319 C43.905,31.341 43.912,31.372 43.925,31.414 C43.938,31.456 43.951,31.485 43.963,31.502 C44.024,31.587 44.131,31.629 44.284,31.629 L44.456,31.629 L44.456,31.841 C44.446,31.841 44.397,31.841 44.307,31.843 C44.241,31.845 44.186,31.845 44.144,31.843 C44.086,31.838 44.035,31.83 43.993,31.817 C43.899,31.791 43.822,31.738 43.763,31.657 C43.704,31.576 43.675,31.487 43.675,31.388 L43.675,30 Z M45.21,31.841 L44.971,31.841 L44.971,30.365 L45.21,30.365 L45.21,31.841 Z M44.98,30.123 C44.98,30.092 44.991,30.065 45.013,30.043 C45.036,30.02 45.063,30.009 45.094,30.009 C45.126,30.009 45.154,30.02 45.176,30.043 C45.199,30.065 45.21,30.092 45.21,30.123 C45.21,30.155 45.199,30.183 45.176,30.206 C45.154,30.228 45.126,30.239 45.094,30.239 C45.063,30.239 45.036,30.228 45.013,30.206 C44.991,30.183 44.98,30.155 44.98,30.123 Z M46.593,30.581 C46.44,30.581 46.308,30.633 46.198,30.737 C46.088,30.84 46.033,30.967 46.033,31.115 C46.035,31.264 46.09,31.389 46.201,31.49 C46.311,31.591 46.442,31.641 46.593,31.641 C46.747,31.641 46.879,31.591 46.99,31.49 C47.101,31.389 47.157,31.264 47.158,31.115 C47.16,30.967 47.104,30.84 46.992,30.737 C46.88,30.633 46.747,30.581 46.593,30.581 Z M46.593,31.862 C46.379,31.862 46.195,31.79 46.04,31.645 C45.885,31.501 45.808,31.325 45.808,31.115 C45.808,30.906 45.885,30.729 46.04,30.583 C46.195,30.437 46.379,30.365 46.593,30.365 C46.809,30.365 46.995,30.437 47.151,30.583 C47.308,30.729 47.386,30.906 47.386,31.115 C47.386,31.325 47.308,31.501 47.151,31.645 C46.995,31.79 46.809,31.862 46.593,31.862 Z M49.265,31.002 L49.265,31.841 L49.035,31.841 L49.035,31.013 C49.035,30.892 48.996,30.79 48.918,30.706 C48.841,30.623 48.742,30.581 48.621,30.581 C48.5,30.581 48.401,30.622 48.323,30.705 C48.246,30.788 48.207,30.891 48.207,31.013 L48.207,31.841 L47.967,31.841 L47.967,30.386 L48.207,30.386 L48.207,30.537 C48.284,30.476 48.352,30.434 48.409,30.411 C48.479,30.38 48.556,30.365 48.642,30.365 C48.815,30.365 48.962,30.427 49.083,30.552 C49.204,30.676 49.265,30.827 49.265,31.002 Z M49.837,31.841 L49.837,31.599 L50.829,31.599 C50.887,31.599 50.936,31.579 50.978,31.54 C51.02,31.5 51.041,31.452 51.041,31.394 C51.041,31.337 51.02,31.289 50.979,31.249 C50.938,31.21 50.888,31.19 50.829,31.19 L50.227,31.19 C50.07,31.19 49.954,31.124 49.876,30.992 C49.839,30.929 49.82,30.86 49.82,30.788 C49.82,30.678 49.859,30.583 49.938,30.504 C50.016,30.425 50.111,30.386 50.223,30.386 L51.234,30.386 L51.234,30.623 L50.229,30.623 C50.181,30.623 50.14,30.639 50.106,30.671 C50.072,30.704 50.055,30.744 50.055,30.79 C50.055,30.838 50.072,30.878 50.106,30.911 C50.14,30.943 50.181,30.96 50.229,30.96 L50.843,30.96 C51.02,30.96 51.15,31.033 51.234,31.181 C51.272,31.249 51.292,31.322 51.292,31.399 C51.292,31.529 51.247,31.635 51.158,31.717 C51.069,31.8 50.96,31.841 50.831,31.841 L49.837,31.841 Z" id="Shape" fill="#58595B" fill-rule="nonzero"></path>
            <path d="M1.683,30.463 C1.354,30.463 1.072,30.574 0.836,30.796 C0.601,31.019 0.483,31.29 0.483,31.608 C0.486,31.927 0.606,32.194 0.841,32.41 C1.077,32.626 1.358,32.734 1.683,32.734 C2.012,32.734 2.295,32.626 2.532,32.41 C2.77,32.194 2.89,31.927 2.893,31.608 C2.897,31.29 2.778,31.019 2.537,30.796 C2.297,30.574 2.012,30.463 1.683,30.463 Z M1.683,33.207 C1.225,33.207 0.83,33.052 0.498,32.744 C0.166,32.435 0,32.056 0,31.608 C0,31.16 0.166,30.78 0.498,30.468 C0.83,30.156 1.225,30 1.683,30 C2.145,30 2.543,30.156 2.878,30.468 C3.214,30.78 3.381,31.16 3.381,31.608 C3.381,32.056 3.214,32.435 2.878,32.744 C2.543,33.052 2.145,33.207 1.683,33.207 Z M3.844,33.162 L3.844,32.644 L5.971,32.644 C6.093,32.644 6.2,32.602 6.289,32.517 C6.379,32.433 6.424,32.329 6.424,32.206 C6.424,32.083 6.38,31.979 6.292,31.895 C6.204,31.81 6.097,31.768 5.971,31.768 L4.68,31.768 C4.345,31.768 4.095,31.627 3.929,31.345 C3.849,31.208 3.809,31.062 3.809,30.906 C3.809,30.671 3.893,30.468 4.061,30.298 C4.228,30.129 4.432,30.045 4.671,30.045 L6.837,30.045 L6.837,30.553 L4.686,30.553 C4.583,30.553 4.495,30.587 4.422,30.657 C4.349,30.727 4.312,30.812 4.312,30.911 C4.312,31.014 4.349,31.1 4.422,31.17 C4.495,31.24 4.583,31.275 4.686,31.275 L6,31.275 C6.379,31.275 6.658,31.432 6.837,31.748 C6.92,31.894 6.962,32.05 6.962,32.216 C6.962,32.495 6.866,32.722 6.675,32.898 C6.484,33.074 6.251,33.162 5.975,33.162 L3.844,33.162 Z M7.43,33.162 L7.43,32.644 L9.557,32.644 C9.679,32.644 9.786,32.602 9.875,32.517 C9.965,32.433 10.01,32.329 10.01,32.206 C10.01,32.083 9.966,31.979 9.878,31.895 C9.79,31.81 9.683,31.768 9.557,31.768 L8.267,31.768 C7.931,31.768 7.681,31.627 7.515,31.345 C7.435,31.208 7.395,31.062 7.395,30.906 C7.395,30.671 7.479,30.468 7.647,30.298 C7.814,30.129 8.018,30.045 8.257,30.045 L10.423,30.045 L10.423,30.553 L8.272,30.553 C8.169,30.553 8.081,30.587 8.008,30.657 C7.935,30.727 7.898,30.812 7.898,30.911 C7.898,31.014 7.935,31.1 8.008,31.17 C8.081,31.24 8.169,31.275 8.272,31.275 L9.587,31.275 C9.965,31.275 10.244,31.432 10.423,31.748 C10.506,31.894 10.548,32.05 10.548,32.216 C10.548,32.495 10.452,32.722 10.261,32.898 C10.07,33.074 9.837,33.162 9.561,33.162 L7.43,33.162 Z" id="Shape" fill="#58595B" fill-rule="nonzero"></path>
            <rect id="Rectangle-path" fill="#58595B" x="11" y="27" width="1" height="9.582"></rect>
            <path d="M15.2133281,16.266 C15.2153281,16.289 15.2223281,16.308 15.2393281,16.322 C15.2563281,16.338 15.2733281,16.345 15.2923281,16.345 L17.4013281,16.345 C17.4233281,16.343 17.4423281,16.334 17.4573281,16.317 C17.4723281,16.298 17.4803281,16.277 17.4803281,16.255 L17.4803281,8.09 C17.4783281,8.066 17.4683281,8.045 17.4513281,8.028 C17.4333281,8.009 17.4123281,8 17.3903281,8 L14.8813281,8 C14.8533281,8 14.8283281,8.01 14.8093281,8.028 C14.7913281,8.045 14.7873281,8.067 14.7793281,8.09 L14.0023281,10.391 C13.9943281,10.415 14.0083281,10.434 14.0233281,10.445 C14.0363281,10.456 14.0683281,10.463 14.1153281,10.466 C14.1623281,10.468 15.0503281,10.469 15.1453281,10.469 C15.1623281,10.469 15.1793281,10.477 15.1923281,10.49 C15.2063281,10.503 15.2133281,10.519 15.2133281,10.537 L15.2133281,16.266 Z" id="Shape" fill="#44B549" fill-rule="nonzero"></path>
            <path d="M15,15.581 C15.002,15.604 15.009,15.623 15.026,15.637 C15.043,15.653 15.06,15.66 15.079,15.66 L17.188,15.66 C17.21,15.658 17.229,15.649 17.244,15.632 C17.259,15.613 17.267,15.592 17.267,15.57 L17.267,11 C16.532,11.171 15.736,11.407 15,11.728 L15,15.581 Z" id="Shape" fill="#62BA46" fill-rule="nonzero"></path>
        </g>
    </g>
</svg>