<?xml version="1.0" encoding="UTF-8"?>
<svg width="80px" height="43px" viewBox="0 0 80 43" version="1.1" xmlns="http://www.w3.org/2000/svg" xmlns:xlink="http://www.w3.org/1999/xlink">
    <!-- Generator: Sketch 48.1 (47250) - http://www.bohemiancoding.com/sketch -->
    <title>ssa</title>
    <desc>Created with Sketch.</desc>
    <defs></defs>
    <g id="Page-1" stroke="none" stroke-width="1" fill="none" fill-rule="evenodd">
        <g id="ssa" fill-rule="nonzero">
            <path d="M48.792,34.906 L48.792,29.332 L48.792,28.45 C48.71,28.768 48.474,29.379 48.298,29.815 L46.099,35.118 L43.936,29.815 C43.759,29.391 43.536,28.768 43.454,28.45 L43.454,34.906 L42.572,34.906 L42.572,26.674 L43.595,26.674 L45.535,31.602 C45.735,32.096 46.029,32.86 46.123,33.201 C46.229,32.848 46.523,32.084 46.711,31.602 L48.674,26.674 L49.674,26.674 L49.674,34.906 L48.792,34.906 Z" id="Shape" fill="#6A6159"></path>
            <path d="M53.556,27.91 L52.862,27.91 L54.074,26.028 L55.332,26.028 L53.556,27.91 Z M53.38,29.368 C52.462,29.368 51.827,30.027 51.722,31.402 L55.049,31.402 C54.979,30.203 54.462,29.368 53.38,29.368 Z M55.838,32.12 L51.722,32.12 C51.804,33.437 52.427,34.272 53.438,34.272 C54.156,34.272 54.579,34.06 55.144,33.684 L55.555,34.319 C54.814,34.789 54.273,35.036 53.344,35.036 C52.216,35.036 50.84,34.213 50.84,31.79 C50.84,29.827 51.922,28.604 53.392,28.604 C55.003,28.604 55.873,29.874 55.873,31.638 C55.873,31.849 55.861,31.979 55.838,32.12 Z" id="Shape" fill="#6A6159"></path>
            <polygon id="Shape" fill="#6A6159" points="60.436 34.906 59.213 32.766 59.025 32.425 58.837 32.766 57.602 34.906 56.685 34.906 58.59 31.719 56.815 28.733 57.79 28.733 58.884 30.649 59.072 30.99 59.261 30.649 60.366 28.733 61.283 28.733 59.507 31.696 61.412 34.906 60.436 34.906"></polygon>
            <path d="M62.695,28.733 L63.577,28.733 L63.577,34.906 L62.695,34.906 L62.695,28.733 Z M63.154,27.627 C62.789,27.627 62.507,27.345 62.507,27.004 C62.507,26.651 62.789,26.369 63.154,26.369 C63.483,26.369 63.765,26.651 63.765,27.004 C63.765,27.345 63.483,27.627 63.154,27.627 Z" id="Shape" fill="#6A6159"></path>
            <path d="M68.998,29.991 C68.551,29.592 68.14,29.368 67.516,29.368 C66.552,29.368 65.811,30.238 65.811,31.779 C65.811,33.295 66.458,34.271 67.552,34.271 C68.151,34.271 68.551,34.025 68.975,33.613 L69.504,34.177 C68.986,34.706 68.386,35.036 67.516,35.036 C66.164,35.036 64.918,34.001 64.918,31.849 C64.918,29.568 66.282,28.603 67.575,28.603 C68.41,28.603 69.045,28.909 69.527,29.333 L68.998,29.991 Z" id="Shape" fill="#6A6159"></path>
            <path d="M72.761,29.368 C71.691,29.368 70.973,30.18 70.973,31.801 C70.973,33.425 71.691,34.272 72.761,34.272 C73.831,34.272 74.56,33.425 74.56,31.801 C74.56,30.18 73.831,29.368 72.761,29.368 M72.738,35.036 C71.232,35.036 70.08,33.919 70.08,31.825 C70.08,29.733 71.279,28.604 72.784,28.604 C74.29,28.604 75.442,29.686 75.442,31.778 C75.442,33.872 74.243,35.036 72.738,35.036" id="Shape" fill="#6A6159"></path>
            <path d="M26.912,32.54 C26.912,32.909 26.851,33.246 26.73,33.552 C26.608,33.857 26.424,34.12 26.177,34.34 C25.93,34.559 25.614,34.73 25.23,34.851 C24.846,34.972 24.391,35.033 23.866,35.033 C23.262,35.033 22.711,34.914 22.213,34.675 C21.716,34.436 21.29,34.112 20.938,33.704 L21.82,32.846 C22.094,33.144 22.421,33.381 22.802,33.558 C23.182,33.734 23.568,33.822 23.96,33.822 C25.097,33.822 25.665,33.422 25.665,32.622 C25.665,32.466 25.634,32.325 25.571,32.199 C25.508,32.074 25.403,31.958 25.254,31.852 C25.105,31.746 24.913,31.646 24.678,31.552 C24.442,31.458 24.152,31.36 23.807,31.258 C23.368,31.133 22.988,31.003 22.666,30.87 C22.345,30.737 22.078,30.582 21.867,30.405 C21.655,30.229 21.496,30.015 21.39,29.764 C21.285,29.514 21.231,29.204 21.231,28.835 C21.231,28.483 21.302,28.163 21.443,27.877 C21.584,27.591 21.776,27.35 22.02,27.153 C22.262,26.958 22.551,26.806 22.884,26.701 C23.217,26.595 23.572,26.542 23.948,26.542 C24.513,26.542 25.011,26.64 25.442,26.836 C25.873,27.032 26.273,27.307 26.642,27.659 L25.771,28.542 C25.512,28.275 25.23,28.077 24.925,27.947 C24.619,27.818 24.262,27.753 23.854,27.753 C23.368,27.753 23.017,27.855 22.802,28.059 C22.586,28.263 22.478,28.502 22.478,28.777 C22.478,28.918 22.505,29.045 22.56,29.159 C22.615,29.273 22.709,29.378 22.843,29.476 C22.976,29.575 23.16,29.67 23.395,29.764 C23.631,29.858 23.925,29.957 24.278,30.058 C24.685,30.184 25.052,30.313 25.377,30.447 C25.703,30.58 25.979,30.741 26.206,30.929 C26.434,31.117 26.608,31.341 26.73,31.599 C26.851,31.858 26.912,32.171 26.912,32.54" id="Shape" fill="#6A6159"></path>
            <path d="M33.404,32.54 C33.404,32.909 33.343,33.246 33.222,33.552 C33.1,33.857 32.916,34.12 32.669,34.34 C32.422,34.559 32.106,34.73 31.722,34.851 C31.338,34.972 30.883,35.033 30.358,35.033 C29.754,35.033 29.203,34.914 28.705,34.675 C28.208,34.436 27.782,34.112 27.43,33.704 L28.312,32.846 C28.586,33.144 28.913,33.381 29.294,33.558 C29.674,33.734 30.06,33.822 30.452,33.822 C31.589,33.822 32.157,33.422 32.157,32.622 C32.157,32.466 32.126,32.325 32.063,32.199 C32,32.074 31.895,31.958 31.746,31.852 C31.597,31.746 31.405,31.646 31.169,31.552 C30.934,31.458 30.644,31.36 30.299,31.258 C29.86,31.133 29.48,31.003 29.158,30.87 C28.837,30.737 28.57,30.582 28.359,30.405 C28.147,30.229 27.988,30.015 27.882,29.764 C27.776,29.514 27.723,29.204 27.723,28.835 C27.723,28.483 27.794,28.163 27.935,27.877 C28.076,27.591 28.268,27.35 28.512,27.153 C28.754,26.958 29.043,26.806 29.376,26.701 C29.709,26.595 30.064,26.542 30.44,26.542 C31.005,26.542 31.503,26.64 31.934,26.836 C32.365,27.032 32.765,27.307 33.134,27.659 L32.263,28.542 C32.004,28.275 31.722,28.077 31.416,27.947 C31.111,27.818 30.754,27.753 30.346,27.753 C29.86,27.753 29.509,27.855 29.294,28.059 C29.078,28.263 28.97,28.502 28.97,28.777 C28.97,28.918 28.997,29.045 29.052,29.159 C29.107,29.273 29.201,29.378 29.335,29.476 C29.468,29.575 29.652,29.67 29.887,29.764 C30.123,29.858 30.417,29.957 30.769,30.058 C31.177,30.184 31.544,30.313 31.869,30.447 C32.195,30.58 32.471,30.741 32.698,30.929 C32.926,31.117 33.1,31.341 33.222,31.599 C33.343,31.858 33.404,32.171 33.404,32.54" id="Shape" fill="#6A6159"></path>
            <path d="M37.85,29.953 C37.803,29.804 37.748,29.64 37.685,29.458 C37.623,29.279 37.562,29.098 37.503,28.918 C37.444,28.737 37.389,28.571 37.338,28.418 C37.287,28.264 37.25,28.145 37.227,28.059 C37.203,28.146 37.168,28.265 37.121,28.418 C37.074,28.571 37.023,28.735 36.968,28.911 C36.913,29.087 36.856,29.27 36.798,29.458 C36.739,29.646 36.682,29.815 36.627,29.964 L35.968,31.845 L38.509,31.845 L37.85,29.952 L37.85,29.953 Z M39.579,34.905 L38.885,32.953 L35.592,32.953 L34.91,34.905 L33.628,34.905 L36.592,26.673 L37.897,26.673 L40.896,34.904 L39.579,34.904 L39.579,34.905 Z" id="Shape" fill="#6A6159"></path>
            <path d="M23.655,41.057 C23.599,41.208 23.52,41.337 23.418,41.443 C23.315,41.55 23.194,41.631 23.053,41.685 C22.912,41.74 22.758,41.767 22.591,41.767 C22.395,41.767 22.219,41.729 22.063,41.653 C21.906,41.576 21.772,41.469 21.661,41.331 C21.55,41.193 21.465,41.029 21.404,40.839 C21.344,40.649 21.314,40.439 21.314,40.209 C21.314,39.982 21.344,39.772 21.404,39.581 C21.465,39.39 21.55,39.225 21.661,39.087 C21.772,38.949 21.906,38.842 22.063,38.766 C22.219,38.689 22.395,38.651 22.591,38.651 C22.839,38.651 23.046,38.699 23.213,38.796 C23.38,38.892 23.515,39.032 23.619,39.217 L23.221,39.462 C23.144,39.339 23.058,39.248 22.965,39.19 C22.871,39.133 22.746,39.104 22.591,39.104 C22.326,39.104 22.124,39.203 21.985,39.402 C21.845,39.601 21.775,39.87 21.775,40.209 C21.775,40.548 21.845,40.818 21.985,41.016 C22.124,41.215 22.326,41.314 22.591,41.314 C22.715,41.314 22.82,41.295 22.906,41.258 C22.993,41.22 23.063,41.171 23.118,41.109 C23.172,41.047 23.213,40.975 23.239,40.893 C23.264,40.811 23.278,40.725 23.278,40.636 L23.278,40.623 L22.785,40.623 L22.785,40.187 L23.739,40.187 L23.739,40.537 C23.739,40.733 23.711,40.906 23.655,41.057" id="Shape" fill="#6A6159"></path>
            <path d="M25.552,39.924 C25.503,39.898 25.453,39.878 25.401,39.864 C25.349,39.849 25.286,39.842 25.211,39.842 C25.07,39.842 24.961,39.891 24.883,39.989 C24.805,40.087 24.767,40.232 24.767,40.425 L24.767,41.72 L24.318,41.72 L24.318,39.454 L24.767,39.454 L24.767,39.669 C24.818,39.595 24.89,39.532 24.98,39.482 C25.071,39.431 25.172,39.406 25.285,39.406 C25.377,39.406 25.452,39.414 25.511,39.43 C25.57,39.446 25.622,39.469 25.669,39.501 L25.552,39.924 Z" id="Shape" fill="#6A6159"></path>
            <path d="M27.477,41.716 L27.481,41.5 C27.424,41.584 27.344,41.65 27.242,41.696 C27.14,41.743 27.03,41.766 26.912,41.766 C26.647,41.766 26.446,41.681 26.31,41.512 C26.173,41.342 26.105,41.088 26.105,40.752 L26.105,39.453 L26.553,39.453 L26.553,40.732 C26.553,40.962 26.594,41.122 26.675,41.214 C26.757,41.306 26.87,41.352 27.015,41.352 C27.163,41.352 27.278,41.302 27.357,41.201 C27.437,41.101 27.477,40.959 27.477,40.775 L27.477,39.453 L27.926,39.453 L27.926,41.716 L27.477,41.716 Z" id="Shape" fill="#6A6159"></path>
            <path d="M30.036,40.636 C30.036,40.35 29.992,40.142 29.905,40.014 C29.818,39.885 29.692,39.821 29.529,39.821 C29.423,39.821 29.326,39.85 29.237,39.909 C29.148,39.967 29.075,40.034 29.017,40.108 L29.017,41.057 C29.043,41.091 29.075,41.125 29.112,41.16 C29.149,41.194 29.191,41.226 29.237,41.254 C29.283,41.283 29.331,41.306 29.383,41.325 C29.434,41.344 29.489,41.353 29.546,41.353 C29.707,41.353 29.828,41.294 29.911,41.175 C29.995,41.056 30.036,40.876 30.036,40.636 M30.485,40.623 C30.485,40.819 30.461,40.988 30.412,41.131 C30.363,41.273 30.297,41.392 30.215,41.486 C30.133,41.582 30.038,41.652 29.93,41.698 C29.822,41.744 29.71,41.767 29.592,41.767 C29.476,41.767 29.369,41.741 29.268,41.689 C29.167,41.636 29.085,41.575 29.022,41.506 L29.022,42.321 L28.582,42.55 L28.582,39.457 L29.022,39.457 L29.022,39.672 C29.105,39.597 29.194,39.534 29.29,39.483 C29.384,39.432 29.492,39.406 29.613,39.406 C29.734,39.406 29.848,39.429 29.954,39.476 C30.061,39.521 30.153,39.594 30.232,39.691 C30.312,39.789 30.373,39.915 30.418,40.069 C30.463,40.223 30.485,40.407 30.485,40.623" id="Shape" fill="#6A6159"></path>
            <path d="M32.505,40.588 C32.505,40.355 32.454,40.17 32.352,40.034 C32.25,39.897 32.108,39.828 31.927,39.828 C31.757,39.828 31.624,39.897 31.527,40.034 C31.431,40.17 31.383,40.351 31.383,40.575 C31.383,40.825 31.435,41.016 31.538,41.147 C31.642,41.278 31.778,41.343 31.948,41.343 C32.032,41.343 32.108,41.323 32.177,41.283 C32.246,41.243 32.305,41.189 32.354,41.121 C32.403,41.053 32.44,40.974 32.466,40.882 C32.492,40.79 32.505,40.692 32.505,40.588 M32.954,40.575 C32.954,40.762 32.928,40.93 32.876,41.078 C32.824,41.226 32.752,41.351 32.661,41.453 C32.568,41.556 32.461,41.633 32.337,41.687 C32.213,41.74 32.078,41.766 31.931,41.766 C31.787,41.766 31.655,41.738 31.534,41.682 C31.413,41.626 31.308,41.546 31.219,41.443 C31.13,41.339 31.06,41.216 31.01,41.072 C30.959,40.928 30.934,40.766 30.934,40.588 C30.934,40.404 30.96,40.239 31.012,40.092 C31.064,39.945 31.135,39.821 31.225,39.718 C31.316,39.616 31.423,39.539 31.545,39.486 C31.667,39.432 31.8,39.406 31.944,39.406 C32.088,39.406 32.222,39.434 32.345,39.49 C32.469,39.546 32.576,39.624 32.667,39.725 C32.758,39.826 32.828,39.949 32.878,40.094 C32.929,40.239 32.954,40.4 32.954,40.575" id="Shape" fill="#6A6159"></path>
            <path d="M36.477,41.618 C36.3,41.717 36.097,41.767 35.866,41.767 C35.671,41.767 35.494,41.729 35.338,41.653 C35.181,41.576 35.047,41.469 34.936,41.331 C34.826,41.193 34.74,41.029 34.679,40.839 C34.619,40.649 34.589,40.439 34.589,40.209 C34.589,39.982 34.619,39.772 34.679,39.581 C34.74,39.39 34.826,39.225 34.936,39.087 C35.047,38.949 35.181,38.842 35.338,38.766 C35.494,38.689 35.671,38.651 35.866,38.651 C36.114,38.651 36.321,38.699 36.488,38.795 C36.655,38.892 36.79,39.032 36.894,39.216 L36.492,39.467 C36.414,39.343 36.329,39.252 36.237,39.193 C36.145,39.134 36.022,39.104 35.866,39.104 C35.601,39.104 35.4,39.203 35.262,39.402 C35.124,39.601 35.055,39.87 35.055,40.209 C35.055,40.548 35.124,40.818 35.262,41.016 C35.4,41.215 35.601,41.314 35.866,41.314 C36.025,41.314 36.155,41.282 36.259,41.219 C36.363,41.156 36.453,41.062 36.531,40.938 L36.906,41.189 C36.797,41.376 36.654,41.519 36.477,41.618" id="Shape" fill="#6A6159"></path>
            <path d="M38.728,40.753 C38.668,40.721 38.596,40.697 38.514,40.679 C38.432,40.662 38.331,40.654 38.21,40.654 C38.066,40.654 37.952,40.684 37.869,40.744 C37.786,40.805 37.744,40.886 37.744,40.99 C37.744,41.102 37.78,41.193 37.852,41.262 C37.924,41.331 38.033,41.366 38.18,41.366 C38.301,41.366 38.409,41.336 38.506,41.275 C38.602,41.215 38.676,41.148 38.728,41.077 L38.728,40.753 Z M38.728,41.72 L38.728,41.495 C38.65,41.573 38.558,41.638 38.452,41.689 C38.345,41.741 38.23,41.767 38.107,41.767 C38.014,41.767 37.922,41.753 37.828,41.726 C37.734,41.699 37.65,41.655 37.576,41.595 C37.501,41.534 37.44,41.455 37.392,41.357 C37.345,41.259 37.321,41.141 37.321,41.003 C37.321,40.877 37.344,40.767 37.39,40.675 C37.436,40.583 37.499,40.507 37.58,40.446 C37.66,40.386 37.755,40.341 37.865,40.313 C37.974,40.284 38.093,40.269 38.223,40.269 C38.43,40.269 38.599,40.298 38.728,40.356 L38.728,40.187 C38.728,40.064 38.691,39.969 38.618,39.903 C38.545,39.837 38.439,39.803 38.301,39.803 C38.183,39.803 38.077,39.815 37.983,39.838 C37.89,39.861 37.799,39.897 37.709,39.946 L37.537,39.609 C37.646,39.543 37.763,39.493 37.886,39.458 C38.01,39.423 38.152,39.406 38.314,39.406 C38.567,39.406 38.772,39.469 38.929,39.594 C39.086,39.719 39.164,39.91 39.164,40.166 L39.164,41.72 L38.728,41.72 Z" id="Shape" fill="#6A6159"></path>
            <path d="M41.037,39.924 C40.988,39.898 40.938,39.878 40.886,39.864 C40.834,39.849 40.771,39.842 40.696,39.842 C40.555,39.842 40.446,39.891 40.368,39.989 C40.291,40.087 40.252,40.232 40.252,40.425 L40.252,41.72 L39.803,41.72 L39.803,39.454 L40.252,39.454 L40.252,39.669 C40.303,39.595 40.375,39.532 40.465,39.482 C40.556,39.431 40.657,39.406 40.77,39.406 C40.862,39.406 40.937,39.414 40.996,39.43 C41.055,39.446 41.107,39.469 41.154,39.501 L41.037,39.924 Z" id="Shape" fill="#6A6159"></path>
            <path d="M42.841,39.924 C42.792,39.898 42.742,39.878 42.69,39.864 C42.638,39.849 42.575,39.842 42.5,39.842 C42.359,39.842 42.25,39.891 42.172,39.989 C42.094,40.087 42.056,40.232 42.056,40.425 L42.056,41.72 L41.607,41.72 L41.607,39.454 L42.056,39.454 L42.056,39.669 C42.107,39.595 42.179,39.532 42.269,39.482 C42.36,39.431 42.461,39.406 42.574,39.406 C42.666,39.406 42.741,39.414 42.8,39.43 C42.859,39.446 42.911,39.469 42.958,39.501 L42.841,39.924 Z" id="Shape" fill="#6A6159"></path>
            <path d="M43.433,39.454 L43.882,39.454 L43.882,41.72 L43.433,41.72 L43.433,39.454 Z M43.942,38.875 C43.942,38.953 43.914,39.019 43.858,39.076 C43.802,39.132 43.735,39.16 43.657,39.16 C43.576,39.16 43.508,39.132 43.452,39.076 C43.396,39.019 43.368,38.953 43.368,38.875 C43.368,38.795 43.396,38.726 43.452,38.67 C43.508,38.614 43.576,38.586 43.657,38.586 C43.735,38.586 43.802,38.614 43.858,38.67 C43.914,38.726 43.942,38.795 43.942,38.875 Z" id="Shape" fill="#6A6159"></path>
            <path d="M45.819,41.719 L45.603,41.326 C45.557,41.243 45.512,41.157 45.467,41.067 C45.423,40.978 45.389,40.912 45.366,40.869 C45.357,40.892 45.344,40.921 45.325,40.957 C45.306,40.993 45.285,41.032 45.262,41.074 C45.239,41.115 45.215,41.159 45.189,41.205 C45.163,41.252 45.14,41.293 45.12,41.331 L44.9,41.719 L44.399,41.719 L45.111,40.545 L44.447,39.453 L44.96,39.453 L45.137,39.773 C45.183,39.856 45.229,39.942 45.275,40.029 C45.321,40.117 45.354,40.182 45.375,40.226 C45.386,40.205 45.401,40.177 45.42,40.142 C45.439,40.106 45.459,40.066 45.48,40.023 C45.502,39.98 45.524,39.936 45.547,39.891 C45.57,39.847 45.593,39.804 45.616,39.764 L45.789,39.453 L46.298,39.453 L45.629,40.545 L46.346,41.719 L45.819,41.719 Z" id="Shape" fill="#6A6159"></path>
            <path d="M19.82,4.778 C21.305,6.63 22.193,8.981 22.193,11.54 C22.193,12.937 21.929,14.272 21.446,15.498 C20.557,11.619 17.836,8.096 14.123,6.029 C15.809,5.233 17.732,4.78 19.82,4.778" id="Shape" fill="#58AC40"></path>
            <path d="M3.098,4.567 C5.083,2.215 8.053,0.721 11.372,0.721 C14.474,0.721 17.271,2.025 19.243,4.116 C17.018,4.117 14.913,4.611 13.022,5.474 C10.107,4.145 6.682,3.689 3.098,4.567" id="Shape" fill="#58AC40"></path>
            <path d="M13.022,6.617 C16.59,8.753 18.862,12.516 19.012,16.636 C19.033,19.301 17.587,20.452 16.298,21.177 C14.821,21.934 13.147,22.361 11.372,22.361 C10.19,22.361 9.051,22.171 7.986,21.821 C5.529,15.894 7.983,9.634 13.022,6.617" id="Shape" fill="#58AC40"></path>
            <path d="M0.551,11.541 C0.551,9.178 1.308,6.993 2.593,5.213 C6.097,4.382 9.296,4.791 11.921,6.03 C6.86,8.847 3.643,14.368 4.393,19.81 C2.043,17.826 0.551,14.858 0.551,11.541" id="Shape" fill="#58AC40"></path>
            <path d="M77.667,34.875 L77.667,34.08 L77.667,34.007 C77.667,33.981 77.667,33.956 77.668,33.931 C77.669,33.906 77.669,33.883 77.67,33.863 C77.671,33.843 77.671,33.827 77.671,33.816 C77.663,33.837 77.649,33.871 77.631,33.918 C77.612,33.965 77.593,34.009 77.574,34.052 L77.209,34.898 L76.848,34.052 C76.83,34.009 76.811,33.965 76.793,33.918 C76.774,33.871 76.76,33.837 76.751,33.816 C76.751,33.827 76.752,33.843 76.753,33.863 C76.753,33.883 76.754,33.906 76.755,33.931 C76.756,33.956 76.756,33.981 76.756,34.007 L76.756,34.875 L76.543,34.875 L76.543,33.371 L76.775,33.371 L77.113,34.173 C77.131,34.216 77.15,34.262 77.171,34.31 C77.191,34.358 77.206,34.399 77.216,34.43 C77.227,34.399 77.242,34.359 77.261,34.311 C77.279,34.263 77.298,34.217 77.317,34.173 L77.647,33.371 L77.89,33.371 L77.89,34.875 L77.667,34.875 Z" id="Shape" fill="#6A6159"></path>
            <path d="M79.195,33.826 C79.195,33.747 79.172,33.687 79.125,33.646 C79.079,33.604 79.017,33.583 78.94,33.583 L78.503,33.583 L78.503,34.067 L78.94,34.067 C79.016,34.067 79.077,34.047 79.124,34.008 C79.171,33.968 79.195,33.908 79.195,33.826 M79.423,33.82 C79.423,33.942 79.393,34.039 79.335,34.112 C79.276,34.185 79.195,34.234 79.092,34.26 L79.399,34.875 L79.14,34.875 L78.842,34.279 L78.503,34.279 L78.503,34.875 L78.279,34.875 L78.279,33.371 L78.939,33.371 C79.005,33.371 79.067,33.38 79.125,33.397 C79.183,33.415 79.234,33.442 79.279,33.479 C79.323,33.516 79.358,33.562 79.384,33.619 C79.409,33.675 79.423,33.742 79.423,33.82" id="Shape" fill="#6A6159"></path>
        </g>
    </g>
</svg>