<?xml version="1.0" encoding="UTF-8"?>
<svg width="50px" height="34px" viewBox="0 0 50 34" version="1.1" xmlns="http://www.w3.org/2000/svg" xmlns:xlink="http://www.w3.org/1999/xlink">
    <!-- Generator: Sketch 48.1 (47250) - http://www.bohemiancoding.com/sketch -->
    <title>tpt</title>
    <desc>Created with Sketch.</desc>
    <defs></defs>
    <g id="Page-1" stroke="none" stroke-width="1" fill="none" fill-rule="evenodd">
        <g id="tpt" fill-rule="nonzero">
            <polygon id="Shape" fill="#404A50" points="1.13686838e-13 19 1.81 19 1.81 19.619 1.273 19.619 1.273 22.281 0.467 22.281 0.467 19.642 0 19.642 0 19"></polygon>
            <polygon id="Shape" fill="#404A50" points="20 19 21.81 19 21.81 19.619 21.273 19.619 21.273 22.281 20.467 22.281 20.467 19.642 20 19.642 20 19"></polygon>
            <polygon id="Shape" fill="#404A50" points="23 19 24.81 19 24.81 19.619 24.273 19.619 24.273 22.281 23.467 22.281 23.467 19.642 23.001 19.642 23.001 19"></polygon>
            <path d="M2,19 L2.806,19 L2.806,21.615 C2.806,21.615 2.841,21.802 3.004,21.802 C3.167,21.802 3.185,21.621 3.185,21.621 L3.185,19 L4.008,19 L4.008,21.603 C4.008,21.603 4.008,22.281 3.004,22.281 C2,22.281 2,21.603 2,21.603 L2,19 Z" id="Shape" fill="#404A50"></path>
            <polygon id="Shape" fill="#404A50" points="4 19 4.794 19 4.969 20.062 5.191 19 5.88 19 5.541 20.436 5.996 22.281 5.202 22.281 4.998 20.821 4.747 22.281 4 22.234 4.35 20.436"></polygon>
            <path d="M7.144,20.214 C7.144,20.423 7.051,20.411 7.051,20.411 L6.759,20.411 L6.759,19.548 L7.004,19.548 C7.109,19.548 7.144,19.665 7.144,19.665 L7.144,20.213 L7.144,20.214 Z M7.319,19 L6,19 L6,22.222 L6.747,22.222 L6.747,20.88 L7.413,20.88 C7.413,20.88 7.833,20.798 7.833,20.262 L7.833,19.443 C7.833,19.443 7.833,19.001 7.319,19.001 L7.319,19 Z" id="Shape" fill="#404A50"></path>
            <path d="M15.144,20.214 C15.144,20.423 15.051,20.411 15.051,20.411 L14.759,20.411 L14.759,19.548 L15.004,19.548 C15.109,19.548 15.144,19.665 15.144,19.665 L15.144,20.213 L15.144,20.214 Z M15.319,19 L14,19 L14,22.222 L14.747,22.222 L14.747,20.88 L15.412,20.88 C15.412,20.88 15.833,20.798 15.833,20.262 L15.833,19.443 C15.833,19.443 15.833,19.001 15.319,19.001 L15.319,19 Z" id="Shape" fill="#404A50"></path>
            <path d="M8.817,21.149 L9.004,19.666 L9.191,21.149 L8.817,21.149 Z M9.973,22.223 L9.564,19 L8.373,19 L8,22.223 L8.782,22.223 L8.782,21.685 L9.202,21.685 L9.202,22.223 L9.973,22.223 Z" id="Shape" fill="#404A50"></path>
            <path d="M35.817,21.149 L36.004,19.666 L36.191,21.149 L35.817,21.149 Z M36.973,22.223 L36.564,19 L35.373,19 L35,22.223 L35.782,22.223 L35.782,21.685 L36.202,21.685 L36.202,22.223 L36.973,22.223 Z" id="Shape" fill="#404A50"></path>
            <polygon id="Shape" fill="#404A50" points="10 19 10.712 19 11.202 20.611 11.202 19 11.868 19 11.868 22.222 11.226 22.222 10.677 20.413 10.677 22.222 10 22.222"></polygon>
            <polygon id="Shape" fill="#404A50" points="33 19 33.712 19 34.203 20.611 34.203 19 34.868 19 34.868 22.222 34.226 22.222 33.677 20.413 33.677 22.222 33 22.222 33 19"></polygon>
            <path d="M17.122,19.745 L17.114,21.671 C17.114,21.671 17.173,21.88 16.968,21.88 C16.763,21.88 16.788,21.688 16.788,21.688 L16.788,19.745 C16.788,19.745 16.763,19.511 16.954,19.511 C17.146,19.511 17.122,19.745 17.122,19.745 M16.955,19 C16.034,19 16,19.737 16,19.737 L16,21.663 C16,21.663 16.026,22.333 16.968,22.333 C17.91,22.333 17.935,21.663 17.935,21.663 L17.935,19.728 C17.935,19.728 17.876,19 16.955,19" id="Shape" fill="#404A50"></path>
            <path d="M19.122,20.078 C19.122,20.262 18.934,20.287 18.934,20.287 L18.745,20.287 L18.745,19.483 L18.934,19.483 C19.122,19.483 19.122,19.626 19.122,19.626 L19.122,20.078 Z M19.39,20.539 C19.39,20.539 19.8,20.463 19.8,20.103 L19.8,19.45 C19.8,19.45 19.825,19 19.248,19 L18,19 L18,22.272 L18.737,22.272 L18.737,20.756 L18.98,20.756 C18.98,20.756 19.122,20.723 19.122,20.982 L19.122,22.272 L19.867,22.272 L19.867,20.941 C19.867,20.941 19.859,20.539 19.39,20.539 Z" id="Shape" fill="#404A50"></path>
            <path d="M28.122,20.078 C28.122,20.262 27.934,20.287 27.934,20.287 L27.745,20.287 L27.745,19.483 L27.934,19.483 C28.122,19.483 28.122,19.626 28.122,19.626 L28.122,20.078 Z M28.39,20.539 C28.39,20.539 28.8,20.463 28.8,20.103 L28.8,19.45 C28.8,19.45 28.825,19 28.248,19 L27,19 L27,22.272 L27.737,22.272 L27.737,20.756 L27.98,20.756 C27.98,20.756 28.122,20.723 28.122,20.982 L28.122,22.272 L28.867,22.272 L28.867,20.941 C28.867,20.941 28.859,20.539 28.39,20.539 Z" id="Shape" fill="#404A50"></path>
            <polygon id="Shape" fill="#404A50" points="25 19 26.335 19 26.335 19.644 25.77 19.644 25.77 20.287 26.335 20.287 26.335 20.877 25.77 20.877 25.77 21.664 26.335 21.664 26.335 22.272 25 22.272 25 19"></polygon>
            <rect id="Rectangle-path" fill="#404A50" x="32" y="19" width="1" height="3.272"></rect>
            <polygon id="Shape" fill="#404A50" points="37.784 21.618 37.784 19 37 19 37 22.272 38.361 22.272 38.361 21.618"></polygon>
            <polygon id="Shape" fill="#404A50" points="29 22.281 29 19 30.082 19 30.326 20.903 30.555 19 31.665 19 31.665 22.281 31.002 22.281 31.002 19.886 30.555 22.281 30.082 22.281 29.69 19.886 29.69 22.281"></polygon>
            <path d="M4,27.652 C4,27.652 5.944,27 7.701,27 C11.312,27 16.065,29.437 19.79,29.437 C22.948,29.437 27.248,27 31.083,27 C33.727,27 35.025,27.652 35.025,27.652 L34.139,28.716 C34.139,28.716 32.834,28.218 31.049,28.218 C27.844,28.218 23.6,30.638 19.687,30.638 C15.774,30.638 11.299,28.304 7.701,28.304 C6.025,28.304 4.995,28.647 4.995,28.647 L4,27.652 Z" id="Shape" fill="#0479B1"></path>
            <path d="M7,30 C7,30 13.69,32.423 19.626,32.334 C24.19,32.266 26.799,31.133 30.918,30 C29.83,31.339 24.783,33.604 19.626,33.639 C13.652,33.639 9.101,32.025 7,30" id="Shape" fill="#0479B1"></path>
            <path d="M1,24.921 C1,24.921 3.076,24 6.086,24 C9.676,24 16.14,25.949 18.801,25.949 C21.395,25.949 27.673,24 32.223,24 C34.977,24 36.762,24.974 36.762,24.974 L36.005,25.949 C36.005,25.949 34.314,25.11 31.974,25.11 C26.51,25.11 22.1,27.192 18.801,27.192 C16.69,27.192 10.419,25.082 6.086,25.082 C4.052,25.082 1.757,25.949 1.757,25.949 L1,24.92 L1,24.921 Z" id="Shape" fill="#0479B1"></path>
            <path d="M6.195,0 L4,3.95 L25.342,3.95 C26.748,3.95 26.64,4.491 26.451,4.977 C26.262,5.464 25.783,6.601 25.783,6.601 L17.824,6.601 L12.6,18.07 L17.824,18.07 L21.203,10.604 L27.073,10.604 C28.966,10.604 29.751,9.225 30.049,8.711 C30.346,8.197 32.258,3.95 32.258,3.95 L47.091,3.95 L49.471,0 L6.195,0 Z" id="Shape" fill="#50A146"></path>
            <polygon id="Shape" fill="#50A146" points="12.253 6 7.043 6 2 17.253 7.127 17.253 12.253 6"></polygon>
            <polygon id="Shape" fill="#50A146" points="40.253 6 35.043 6 30 17.253 35.127 17.253 40.253 6"></polygon>
        </g>
    </g>
</svg>